<?xml version="1.0" encoding="utf-8"?>
<!-- Generator: Adobe Illustrator 28.0.0, SVG Export Plug-In . SVG Version: 6.00 Build 0)  -->
<svg version="1.1" id="Capa_1" xmlns="http://www.w3.org/2000/svg" xmlns:xlink="http://www.w3.org/1999/xlink" x="0px" y="0px"
	 viewBox="0 0 900 900" style="enable-background:new 0 0 900 900;" xml:space="preserve">
<style type="text/css">
	.st0{fill:#FF88B9;}
	.st1{fill:#A397FC;}
	.st2{fill:#2B506A;}
	.st3{fill:#2C506A;}
	.st4{fill:#2D516B;}
	.st5{fill:#2E516B;}
	.st6{fill:#30516C;}
	.st7{fill:#31516C;}
	.st8{fill:#32526D;}
	.st9{fill:#33526D;}
	.st10{fill:#34526D;}
	.st11{fill:#35536E;}
	.st12{fill:#36536E;}
	.st13{fill:#37536F;}
	.st14{fill:#39546F;}
	.st15{fill:#3A546F;}
	.st16{fill:#3B5470;}
	.st17{fill:#3C5470;}
	.st18{fill:#3D5571;}
	.st19{fill:#3E5571;}
	.st20{fill:#3F5572;}
	.st21{fill:#405672;}
	.st22{fill:#425672;}
	.st23{fill:#435673;}
	.st24{fill:#445773;}
	.st25{fill:#455774;}
	.st26{fill:#465774;}
	.st27{fill:#475775;}
	.st28{fill:#485875;}
	.st29{fill:#495875;}
	.st30{fill:#4B5876;}
	.st31{fill:#4C5976;}
	.st32{fill:#4D5977;}
	.st33{fill:#4E5977;}
	.st34{fill:#4F5A77;}
	.st35{fill:#505A78;}
	.st36{fill:#515A78;}
	.st37{fill:#525A79;}
	.st38{fill:#545B79;}
	.st39{fill:#555B7A;}
	.st40{fill:#565B7A;}
	.st41{fill:#575C7A;}
	.st42{fill:#585C7B;}
	.st43{fill:#595C7B;}
	.st44{fill:#5A5D7C;}
	.st45{fill:#5B5D7C;}
	.st46{fill:#5D5D7C;}
	.st47{fill:#5E5D7D;}
	.st48{fill:#5F5E7D;}
	.st49{fill:#605E7E;}
	.st50{fill:#615E7E;}
	.st51{fill:#625F7F;}
	.st52{fill:#635F7F;}
	.st53{fill:#655F7F;}
	.st54{fill:#665F80;}
	.st55{fill:#676080;}
	.st56{fill:#686081;}
	.st57{fill:#696081;}
	.st58{fill:#6A6182;}
	.st59{fill:#6B6182;}
	.st60{fill:#6C6182;}
	.st61{fill:#6E6283;}
	.st62{fill:#6F6283;}
	.st63{fill:#706284;}
	.st64{fill:#716284;}
	.st65{fill:#726384;}
	.st66{fill:#736385;}
	.st67{fill:#746385;}
	.st68{fill:#756486;}
	.st69{fill:#776486;}
	.st70{fill:#786487;}
	.st71{fill:#796587;}
	.st72{fill:#7A6587;}
	.st73{fill:#7B6588;}
	.st74{fill:#7C6588;}
	.st75{fill:#7D6689;}
	.st76{fill:#7E6689;}
	.st77{fill:#80668A;}
	.st78{fill:#81678A;}
	.st79{fill:#82678A;}
	.st80{fill:#83678B;}
	.st81{fill:#84688B;}
	.st82{fill:#85688C;}
	.st83{fill:#86688C;}
	.st84{fill:#87688C;}
	.st85{fill:#89698D;}
	.st86{fill:#8A698D;}
	.st87{fill:#8B698E;}
	.st88{fill:#8C6A8E;}
	.st89{fill:#8D6A8F;}
	.st90{fill:#8E6A8F;}
	.st91{fill:#8F6B8F;}
	.st92{fill:#906B90;}
	.st93{fill:#926B90;}
	.st94{fill:#936B91;}
	.st95{fill:#946C91;}
	.st96{fill:#956C92;}
	.st97{fill:#966C92;}
	.st98{fill:#976D92;}
	.st99{fill:#986D93;}
	.st100{fill:#9A6D93;}
	.st101{fill:#9B6D94;}
	.st102{fill:#9C6E94;}
	.st103{fill:#9D6E94;}
	.st104{fill:#9E6E95;}
	.st105{fill:#9F6F95;}
	.st106{fill:#A06F96;}
	.st107{fill:#A16F96;}
	.st108{fill:#A37097;}
	.st109{fill:#A47097;}
	.st110{fill:#A57097;}
	.st111{fill:#A67098;}
	.st112{fill:#A77198;}
	.st113{fill:#A87199;}
	.st114{fill:#A97199;}
	.st115{fill:#AA7299;}
	.st116{fill:#AC729A;}
	.st117{fill:#AD729A;}
	.st118{fill:#AE739B;}
	.st119{fill:#AF739B;}
	.st120{fill:#B0739C;}
	.st121{fill:#B1739C;}
	.st122{fill:#B2749C;}
	.st123{fill:#B3749D;}
	.st124{fill:#B5749D;}
	.st125{fill:#B6759E;}
	.st126{fill:#B7759E;}
	.st127{fill:#B8759F;}
	.st128{fill:#B9769F;}
	.st129{fill:#BA769F;}
	.st130{fill:#BB76A0;}
	.st131{fill:#BC76A0;}
	.st132{fill:#BE77A1;}
	.st133{fill:#BF77A1;}
	.st134{fill:#C077A1;}
	.st135{fill:#C178A2;}
	.st136{fill:#C278A2;}
	.st137{fill:#C378A3;}
	.st138{fill:#C479A3;}
	.st139{fill:#C579A4;}
	.st140{fill:#C779A4;}
	.st141{fill:#C879A4;}
	.st142{fill:#C97AA5;}
	.st143{fill:#CA7AA5;}
	.st144{fill:#CB7AA6;}
	.st145{fill:#CC7BA6;}
	.st146{fill:#CD7BA7;}
	.st147{fill:#CF7BA7;}
	.st148{fill:#D07BA7;}
	.st149{fill:#D17CA8;}
	.st150{fill:#D27CA8;}
	.st151{fill:#D37CA9;}
	.st152{fill:#D47DA9;}
	.st153{fill:#D57DA9;}
	.st154{fill:#D67DAA;}
	.st155{fill:#D87EAA;}
	.st156{fill:#D97EAB;}
	.st157{fill:#DA7EAB;}
	.st158{fill:#DB7EAC;}
	.st159{fill:#DC7FAC;}
	.st160{fill:#DD7FAC;}
	.st161{fill:#DE7FAD;}
	.st162{fill:#DF80AD;}
	.st163{fill:#E180AE;}
	.st164{fill:#E280AE;}
	.st165{fill:#E381AE;}
	.st166{fill:#E481AF;}
	.st167{fill:#E581AF;}
	.st168{fill:#E681B0;}
	.st169{fill:#E782B0;}
	.st170{fill:#E882B1;}
	.st171{fill:#EA82B1;}
	.st172{fill:#EB83B1;}
	.st173{fill:#EC83B2;}
	.st174{fill:#ED83B2;}
	.st175{fill:#EE84B3;}
	.st176{fill:#EF84B3;}
	.st177{fill:#F084B4;}
	.st178{fill:#F184B4;}
	.st179{fill:#F385B4;}
	.st180{fill:#F485B5;}
	.st181{fill:#F585B5;}
	.st182{fill:#F686B6;}
	.st183{fill:#F786B6;}
	.st184{fill:#F886B6;}
	.st185{fill:#F987B7;}
	.st186{fill:#FA87B7;}
	.st187{fill:#FC87B8;}
	.st188{fill:#FD87B8;}
	.st189{fill:#FE88B9;}
	.st190{fill:#A1D2FF;}
</style>
<g>
	<path class="st0" d="M602.89,120v235.87h-11.25c-8.44,1.93-17.07,3.2-25.27,5.89c-41.35,13.42-70.96,53.86-71.6,97.36
		c-0.19,13.39,0.04,26.79-0.17,40.18c-0.02,1.9-1,4.31-2.38,5.63c-28.2,26.81-44.75,59.46-49.53,98.05
		c-9.07,72.99,36.42,144.98,106.29,168.42c8.61,2.9,17.29,5.04,25.95,6.45H139.8V120H602.89z"/>
	<path class="st0" d="M602.89,408.54v53.43c-18.26-0.26-36.57,2.79-54.96,9.15c-1.82-24,5.8-43.17,26.7-55.14
		C583.99,410.62,593.49,408.15,602.89,408.54z"/>
	<path class="st0" d="M600.77,594.49c0.71,0,1.43,0.04,2.12,0.11v52.82c-0.65,0.07-1.3,0.09-1.97,0.09
		c-14.65,0.09-26.64-11.79-26.66-26.42C574.21,606.43,586.14,594.49,600.77,594.49z"/>
	<rect x="271.8" y="228.2" class="st1" width="201.25" height="8.66"/>
	<g>
		<rect x="196.07" y="306.1" class="st2" width="344.07" height="4.33"/>
		<polygon class="st3" points="538.3,308.1 540.13,312.4 540.13,312.43 196.07,312.43 196.07,308.12 		"/>
		<polygon class="st4" points="536.47,310.1 540.13,314.38 540.13,314.43 196.07,314.43 196.07,310.15 		"/>
		<polygon class="st5" points="534.64,312.11 540.13,316.36 540.13,316.43 196.07,316.43 196.07,312.18 		"/>
		<polygon class="st6" points="532.81,314.11 540.13,318.34 540.13,318.44 196.07,318.44 196.07,314.2 		"/>
		<polygon class="st7" points="530.98,316.11 540.13,320.32 540.13,320.44 196.07,320.44 196.07,316.23 		"/>
		<polygon class="st8" points="529.15,318.11 540.13,322.3 540.13,322.44 196.07,322.44 196.07,318.25 		"/>
		<polygon class="st9" points="527.32,320.12 540.13,324.28 540.13,324.45 196.07,324.45 196.07,320.28 		"/>
		<polygon class="st10" points="525.49,322.12 540.13,326.26 540.13,326.45 196.07,326.45 196.07,322.3 		"/>
		<polygon class="st11" points="523.66,324.12 540.13,328.24 540.13,328.45 196.07,328.45 196.07,324.33 		"/>
		<polygon class="st12" points="521.83,326.13 540.13,330.22 540.13,330.45 196.07,330.45 196.07,326.36 		"/>
		<polygon class="st13" points="520,328.13 540.13,332.2 540.13,332.46 196.07,332.46 196.07,328.38 		"/>
		<polygon class="st14" points="518.17,330.13 540.13,334.18 540.13,334.46 196.07,334.46 196.07,330.41 		"/>
		<polygon class="st15" points="516.34,332.13 540.13,336.16 540.13,336.46 196.07,336.46 196.07,332.43 		"/>
		<polygon class="st16" points="514.51,334.14 540.13,338.14 540.13,338.47 196.07,338.47 196.07,334.46 		"/>
		<polygon class="st17" points="512.68,336.14 540.13,340.12 540.13,340.47 196.07,340.47 196.07,336.48 		"/>
		<polygon class="st18" points="510.85,338.14 540.13,342.1 540.13,342.47 196.07,342.47 196.07,338.51 		"/>
		<polygon class="st19" points="509.02,340.15 540.13,344.08 540.13,344.47 196.07,344.47 196.07,340.54 		"/>
		<polygon class="st20" points="507.19,342.15 540.13,346.06 540.13,346.48 196.07,346.48 196.07,342.56 		"/>
		<polygon class="st21" points="505.36,344.15 540.13,348.03 540.13,348.48 196.07,348.48 196.07,344.59 		"/>
		<polygon class="st22" points="503.53,346.15 540.13,350.01 540.13,350.48 196.07,350.48 196.07,346.61 		"/>
		<polygon class="st23" points="501.7,348.16 540.13,351.99 540.13,352.48 196.07,352.48 196.07,348.64 		"/>
		<polygon class="st24" points="499.87,350.16 540.13,353.97 540.13,354.49 196.07,354.49 196.07,350.67 		"/>
		<polygon class="st25" points="498.04,352.16 540.13,355.95 540.13,356.49 196.07,356.49 196.07,352.69 		"/>
		<polygon class="st26" points="496.21,354.17 540.13,357.93 540.13,358.49 196.07,358.49 196.07,354.72 		"/>
		<polygon class="st27" points="494.38,356.17 540.13,359.91 540.13,360.5 196.07,360.5 196.07,356.74 		"/>
		<polygon class="st28" points="492.55,358.17 540.13,361.89 540.13,362.5 196.07,362.5 196.07,358.77 		"/>
		<polygon class="st29" points="490.72,360.17 540.13,363.87 540.13,364.5 196.07,364.5 196.07,360.79 		"/>
		<polygon class="st30" points="488.89,362.18 540.13,365.85 540.13,366.5 196.07,366.5 196.07,362.82 		"/>
		<polygon class="st31" points="487.06,364.18 540.13,367.83 540.13,368.51 196.07,368.51 196.07,364.85 		"/>
		<polygon class="st32" points="485.23,366.18 540.13,369.81 540.13,370.51 196.07,370.51 196.07,366.87 		"/>
		<polygon class="st33" points="483.4,368.18 540.13,371.79 540.13,372.51 196.07,372.51 196.07,368.9 		"/>
		<polygon class="st34" points="481.57,370.19 540.13,373.77 540.13,374.52 196.07,374.52 196.07,370.92 		"/>
		<polygon class="st35" points="479.74,372.19 540.13,375.75 540.13,376.52 196.07,376.52 196.07,372.95 		"/>
		<polygon class="st36" points="477.91,374.19 540.13,377.73 540.13,378.52 196.07,378.52 196.07,374.97 		"/>
		<polygon class="st37" points="476.08,376.2 540.13,379.71 540.13,380.52 196.07,380.52 196.07,377 		"/>
		<polygon class="st38" points="474.25,378.2 540.13,381.69 540.13,382.53 196.07,382.53 196.07,379.03 		"/>
		<polygon class="st39" points="472.42,380.2 540.13,383.67 540.13,384.53 196.07,384.53 196.07,381.05 		"/>
		<polygon class="st40" points="470.59,382.2 540.13,385.65 540.13,386.53 196.07,386.53 196.07,383.08 		"/>
		<polygon class="st41" points="468.76,384.21 540.13,387.63 540.13,388.53 196.07,388.53 196.07,385.1 		"/>
		<polygon class="st42" points="466.93,386.21 540.13,389.61 540.13,390.54 196.07,390.54 196.07,387.13 		"/>
		<polygon class="st43" points="465.1,388.21 540.13,391.59 540.13,392.54 196.07,392.54 196.07,389.15 		"/>
		<polygon class="st44" points="463.27,390.22 540.13,393.57 540.13,394.54 196.07,394.54 196.07,391.18 		"/>
		<polygon class="st45" points="461.44,392.22 540.13,395.55 540.13,396.55 196.07,396.55 196.07,393.21 		"/>
		<polygon class="st46" points="459.61,394.22 540.13,397.53 540.13,398.55 196.07,398.55 196.07,395.23 		"/>
		<polygon class="st47" points="457.78,396.22 540.13,399.51 540.13,400.55 196.07,400.55 196.07,397.26 		"/>
		<polygon class="st48" points="455.95,398.23 540.13,401.49 540.13,402.55 196.07,402.55 196.07,399.28 		"/>
		<polygon class="st49" points="454.12,400.23 540.13,403.47 540.13,404.56 196.07,404.56 196.07,401.31 		"/>
		<polygon class="st50" points="452.29,402.23 540.13,405.45 540.13,406.56 196.07,406.56 196.07,403.34 		"/>
		<polygon class="st51" points="450.46,404.23 540.13,407.43 540.13,408.56 196.07,408.56 196.07,405.36 		"/>
		<polygon class="st52" points="448.63,406.24 540.13,409.41 540.13,410.57 196.07,410.57 196.07,407.39 		"/>
		<polygon class="st53" points="446.79,408.24 540.13,411.39 540.13,412.57 196.07,412.57 196.07,409.41 		"/>
		<polygon class="st54" points="444.96,410.24 540.13,413.37 540.13,414.57 196.07,414.57 196.07,411.44 		"/>
		<polygon class="st55" points="443.13,412.25 540.13,415.35 540.13,416.57 196.07,416.57 196.07,413.46 		"/>
		<polygon class="st56" points="441.3,414.25 540.13,417.33 540.13,418.58 196.07,418.58 196.07,415.49 		"/>
		<polygon class="st57" points="439.47,416.25 540.13,419.31 540.13,420.58 196.07,420.58 196.07,417.52 		"/>
		<polygon class="st58" points="437.64,418.25 540.13,421.29 540.13,422.58 196.07,422.58 196.07,419.54 		"/>
		<polygon class="st59" points="435.81,420.26 540.13,423.27 540.13,424.58 196.07,424.58 196.07,421.57 		"/>
		<polygon class="st60" points="433.98,422.26 540.13,425.25 540.13,426.59 196.07,426.59 196.07,423.59 		"/>
		<polygon class="st61" points="432.15,424.26 540.13,427.23 540.13,428.59 196.07,428.59 196.07,425.62 		"/>
		<polygon class="st62" points="430.32,426.27 540.13,429.21 540.13,430.59 196.07,430.59 196.07,427.64 		"/>
		<polygon class="st63" points="428.49,428.27 540.13,431.19 540.13,432.6 196.07,432.6 196.07,429.67 		"/>
		<polygon class="st64" points="426.66,430.27 540.13,433.17 540.13,434.6 196.07,434.6 196.07,431.7 		"/>
		<polygon class="st65" points="424.83,432.27 540.13,435.15 540.13,436.6 196.07,436.6 196.07,433.72 		"/>
		<polygon class="st66" points="423,434.28 540.13,437.13 540.13,438.6 196.07,438.6 196.07,435.75 		"/>
		<polygon class="st67" points="421.17,436.28 540.13,439.11 540.13,440.61 196.07,440.61 196.07,437.77 		"/>
		<polygon class="st68" points="419.34,438.28 540.13,441.09 540.13,442.61 196.07,442.61 196.07,439.8 		"/>
		<polygon class="st69" points="417.51,440.29 540.13,443.07 540.13,444.61 196.07,444.61 196.07,441.82 		"/>
		<polygon class="st70" points="415.68,442.29 540.13,445.05 540.13,446.62 196.07,446.62 196.07,443.85 		"/>
		<polygon class="st71" points="413.85,444.29 540.13,447.03 540.13,448.62 196.07,448.62 196.07,445.88 		"/>
		<polygon class="st72" points="412.02,446.29 540.13,449.01 540.13,450.62 196.07,450.62 196.07,447.9 		"/>
		<polygon class="st73" points="410.19,448.3 540.13,450.98 540.13,452.62 196.07,452.62 196.07,449.93 		"/>
		<polygon class="st74" points="408.36,450.3 540.13,452.96 540.13,454.63 196.07,454.63 196.07,451.95 		"/>
		<polygon class="st75" points="406.53,452.3 540.13,454.94 540.13,456.63 196.07,456.63 196.07,453.98 		"/>
		<polygon class="st76" points="404.7,454.3 540.13,456.92 540.13,458.63 196.07,458.63 196.07,456.01 		"/>
		<polygon class="st77" points="402.87,456.31 540.13,458.9 540.13,460.64 196.07,460.64 196.07,458.03 		"/>
		<polygon class="st78" points="401.04,458.31 540.13,460.88 540.13,462.64 196.07,462.64 196.07,460.06 		"/>
		<polygon class="st79" points="399.21,460.31 540.13,462.86 540.13,464.64 196.07,464.64 196.07,462.08 		"/>
		<polygon class="st80" points="397.38,462.32 540.13,464.84 540.13,466.64 196.07,466.64 196.07,464.11 		"/>
		<polygon class="st81" points="395.55,464.32 540.13,466.82 540.13,468.65 196.07,468.65 196.07,466.13 		"/>
		<polygon class="st82" points="393.72,466.32 540.13,468.8 540.13,470.65 196.07,470.65 196.07,468.16 		"/>
		<polygon class="st83" points="391.89,468.32 540.13,470.78 540.13,472.65 196.07,472.65 196.07,470.19 		"/>
		<polygon class="st84" points="390.06,470.33 540.13,472.76 540.13,474.65 196.07,474.65 196.07,472.21 		"/>
		<polygon class="st85" points="388.23,472.33 540.13,474.74 540.13,476.66 196.07,476.66 196.07,474.24 		"/>
		<polygon class="st86" points="386.4,474.33 540.13,476.72 540.13,478.66 196.07,478.66 196.07,476.26 		"/>
		<polygon class="st87" points="384.57,476.34 540.13,478.7 540.13,480.66 196.07,480.66 196.07,478.29 		"/>
		<polygon class="st88" points="382.74,478.34 540.13,480.68 540.13,482.67 196.07,482.67 196.07,480.31 		"/>
		<polygon class="st89" points="380.91,480.34 540.13,482.66 540.13,484.67 196.07,484.67 196.07,482.34 		"/>
		<polygon class="st90" points="379.08,482.34 540.13,484.64 540.13,486.67 196.07,486.67 196.07,484.37 		"/>
		<polygon class="st91" points="377.25,484.35 540.13,486.62 540.13,488.67 196.07,488.67 196.07,486.39 		"/>
		<polygon class="st92" points="375.42,486.35 540.13,488.6 540.13,490.68 196.07,490.68 196.07,488.42 		"/>
		<polygon class="st93" points="373.59,488.35 540.13,490.58 540.13,492.68 196.07,492.68 196.07,490.44 		"/>
		<polygon class="st94" points="371.76,490.35 540.13,492.56 540.13,494.68 196.07,494.68 196.07,492.47 		"/>
		<polygon class="st95" points="369.93,492.36 540.13,494.54 540.13,496.69 196.07,496.69 196.07,494.49 		"/>
		<polygon class="st96" points="368.1,494.36 540.13,496.52 540.13,498.69 196.07,498.69 196.07,496.52 		"/>
		<polygon class="st97" points="366.27,496.36 540.13,498.5 540.13,500.69 196.07,500.69 196.07,498.55 		"/>
		<polygon class="st98" points="364.44,498.37 540.13,500.48 540.13,502.69 196.07,502.69 196.07,500.57 		"/>
		<polygon class="st99" points="362.61,500.37 540.13,502.46 540.13,504.7 196.07,504.7 196.07,502.6 		"/>
		<polygon class="st100" points="360.78,502.37 540.13,504.44 540.13,506.7 196.07,506.7 196.07,504.62 		"/>
		<polygon class="st101" points="358.95,504.37 540.13,506.42 540.13,508.7 196.07,508.7 196.07,506.65 		"/>
		<polygon class="st102" points="357.12,506.38 540.13,508.4 540.13,510.7 196.07,510.7 196.07,508.68 		"/>
		<polygon class="st103" points="355.29,508.38 540.13,510.38 540.13,512.71 196.07,512.71 196.07,510.7 		"/>
		<polygon class="st104" points="353.46,510.38 540.13,512.36 540.13,514.71 196.07,514.71 196.07,512.73 		"/>
		<polygon class="st105" points="351.63,512.39 540.13,514.34 540.13,516.71 196.07,516.71 196.07,514.75 		"/>
		<polygon class="st106" points="349.8,514.39 540.13,516.32 540.13,518.72 196.07,518.72 196.07,516.78 		"/>
		<polygon class="st107" points="347.97,516.39 540.13,518.3 540.13,520.72 196.07,520.72 196.07,518.8 		"/>
		<polygon class="st108" points="346.14,518.39 540.13,520.28 540.13,522.72 196.07,522.72 196.07,520.83 		"/>
		<polygon class="st109" points="344.31,520.4 540.13,522.26 540.13,524.72 196.07,524.72 196.07,522.86 		"/>
		<polygon class="st110" points="342.48,522.4 540.13,524.24 540.13,526.73 196.07,526.73 196.07,524.88 		"/>
		<polygon class="st111" points="340.65,524.4 540.13,526.22 540.13,528.73 196.07,528.73 196.07,526.91 		"/>
		<polygon class="st112" points="338.82,526.4 540.13,528.2 540.13,530.73 196.07,530.73 196.07,528.93 		"/>
		<polygon class="st113" points="336.99,528.41 540.13,530.18 540.13,532.74 196.07,532.74 196.07,530.96 		"/>
		<polygon class="st114" points="335.16,530.41 540.13,532.16 540.13,534.74 196.07,534.74 196.07,532.98 		"/>
		<polygon class="st115" points="333.33,532.41 540.13,534.14 540.13,536.74 196.07,536.74 196.07,535.01 		"/>
		<polygon class="st116" points="331.5,534.42 540.13,536.12 540.13,538.74 196.07,538.74 196.07,537.04 		"/>
		<polygon class="st117" points="329.67,536.42 540.13,538.1 540.13,540.75 196.07,540.75 196.07,539.06 		"/>
		<polygon class="st118" points="327.84,538.42 540.13,540.08 540.13,542.75 196.07,542.75 196.07,541.09 		"/>
		<polygon class="st119" points="326.01,540.42 540.13,542.06 540.13,544.75 196.07,544.75 196.07,543.11 		"/>
		<polygon class="st120" points="324.18,542.43 540.13,544.04 540.13,546.76 196.07,546.76 196.07,545.14 		"/>
		<polygon class="st121" points="322.35,544.43 540.13,546.02 540.13,548.76 196.07,548.76 196.07,547.16 		"/>
		<polygon class="st122" points="320.52,546.43 540.13,548 540.13,550.76 196.07,550.76 196.07,549.19 		"/>
		<polygon class="st123" points="318.69,548.44 540.13,549.98 540.13,552.76 196.07,552.76 196.07,551.22 		"/>
		<polygon class="st124" points="316.86,550.44 540.13,551.96 540.13,554.77 196.07,554.77 196.07,553.24 		"/>
		<polygon class="st125" points="315.03,552.44 540.13,553.93 540.13,556.77 196.07,556.77 196.07,555.27 		"/>
		<polygon class="st126" points="313.2,554.44 540.13,555.91 540.13,558.77 196.07,558.77 196.07,557.29 		"/>
		<polygon class="st127" points="311.36,556.45 540.13,557.89 540.13,560.77 196.07,560.77 196.07,559.32 		"/>
		<polygon class="st128" points="309.53,558.45 540.13,559.87 540.13,562.78 196.07,562.78 196.07,561.35 		"/>
		<polygon class="st129" points="307.7,560.45 540.13,561.85 540.13,564.78 196.07,564.78 196.07,563.37 		"/>
		<polygon class="st130" points="305.87,562.46 540.13,563.83 540.13,566.78 196.07,566.78 196.07,565.4 		"/>
		<polygon class="st131" points="304.04,564.46 540.13,565.81 540.13,568.79 196.07,568.79 196.07,567.42 		"/>
		<polygon class="st132" points="302.21,566.46 540.13,567.79 540.13,570.79 196.07,570.79 196.07,569.45 		"/>
		<polygon class="st133" points="300.38,568.46 540.13,569.77 540.13,572.79 196.07,572.79 196.07,571.47 		"/>
		<polygon class="st134" points="298.55,570.47 540.13,571.75 540.13,574.79 196.07,574.79 196.07,573.5 		"/>
		<polygon class="st135" points="296.72,572.47 540.13,573.73 540.13,576.8 196.07,576.8 196.07,575.53 		"/>
		<polygon class="st136" points="294.89,574.47 540.13,575.71 540.13,578.8 196.07,578.8 196.07,577.55 		"/>
		<polygon class="st137" points="293.06,576.47 540.13,577.69 540.13,580.8 196.07,580.8 196.07,579.58 		"/>
		<polygon class="st138" points="291.23,578.48 540.13,579.67 540.13,582.81 196.07,582.81 196.07,581.6 		"/>
		<polygon class="st139" points="289.4,580.48 540.13,581.65 540.13,584.81 196.07,584.81 196.07,583.63 		"/>
		<polygon class="st140" points="287.57,582.48 540.13,583.63 540.13,586.81 196.07,586.81 196.07,585.65 		"/>
		<polygon class="st141" points="285.74,584.49 540.13,585.61 540.13,588.81 196.07,588.81 196.07,587.68 		"/>
		<polygon class="st142" points="283.91,586.49 540.13,587.59 540.13,590.82 196.07,590.82 196.07,589.71 		"/>
		<polygon class="st143" points="282.08,588.49 540.13,589.57 540.13,592.82 196.07,592.82 196.07,591.73 		"/>
		<polygon class="st144" points="280.25,590.49 540.13,591.55 540.13,594.82 196.07,594.82 196.07,593.76 		"/>
		<polygon class="st145" points="278.42,592.5 540.13,593.53 540.13,596.82 196.07,596.82 196.07,595.78 		"/>
		<polygon class="st146" points="276.59,594.5 540.13,595.51 540.13,598.83 196.07,598.83 196.07,597.81 		"/>
		<polygon class="st147" points="274.76,596.5 540.13,597.49 540.13,600.83 196.07,600.83 196.07,599.83 		"/>
		<polygon class="st148" points="272.93,598.51 540.13,599.47 540.13,602.83 196.07,602.83 196.07,601.86 		"/>
		<polygon class="st149" points="271.1,600.51 540.13,601.45 540.13,604.84 196.07,604.84 196.07,603.89 		"/>
		<polygon class="st150" points="269.27,602.51 540.13,603.43 540.13,606.84 196.07,606.84 196.07,605.91 		"/>
		<polygon class="st151" points="267.44,604.51 540.13,605.41 540.13,608.84 196.07,608.84 196.07,607.94 		"/>
		<polygon class="st152" points="265.61,606.52 540.13,607.39 540.13,610.84 196.07,610.84 196.07,609.96 		"/>
		<polygon class="st153" points="263.78,608.52 540.13,609.37 540.13,612.85 196.07,612.85 196.07,611.99 		"/>
		<polygon class="st154" points="261.95,610.52 540.13,611.35 540.13,614.85 196.07,614.85 196.07,614.02 		"/>
		<polygon class="st155" points="260.12,612.52 540.13,613.33 540.13,616.85 196.07,616.85 196.07,616.04 		"/>
		<polygon class="st156" points="258.29,614.53 540.13,615.31 540.13,618.86 196.07,618.86 196.07,618.07 		"/>
		<polygon class="st157" points="256.46,616.53 540.13,617.29 540.13,620.86 196.07,620.86 196.07,620.09 		"/>
		<polygon class="st158" points="254.63,618.53 540.13,619.27 540.13,622.86 196.07,622.86 196.07,622.12 		"/>
		<polygon class="st159" points="252.8,620.54 540.13,621.25 540.13,624.86 196.07,624.86 196.07,624.14 		"/>
		<polygon class="st160" points="250.97,622.54 540.13,623.23 540.13,626.87 196.07,626.87 196.07,626.17 		"/>
		<polygon class="st161" points="249.14,624.54 540.13,625.21 540.13,628.87 196.07,628.87 196.07,628.2 		"/>
		<polygon class="st162" points="247.31,626.54 540.13,627.19 540.13,630.87 196.07,630.87 196.07,630.22 		"/>
		<polygon class="st163" points="245.48,628.55 540.13,629.17 540.13,632.87 196.07,632.87 196.07,632.25 		"/>
		<polygon class="st164" points="243.65,630.55 540.13,631.15 540.13,634.88 196.07,634.88 196.07,634.27 		"/>
		<polygon class="st165" points="241.82,632.55 540.13,633.13 540.13,636.88 196.07,636.88 196.07,636.3 		"/>
		<polygon class="st166" points="239.99,634.56 540.13,635.11 540.13,638.88 196.07,638.88 196.07,638.32 		"/>
		<polygon class="st167" points="238.16,636.56 540.13,637.09 540.13,640.89 196.07,640.89 196.07,640.35 		"/>
		<polygon class="st168" points="236.33,638.56 540.13,639.07 540.13,642.89 196.07,642.89 196.07,642.38 		"/>
		<polygon class="st169" points="234.5,640.56 540.13,641.05 540.13,644.89 196.07,644.89 196.07,644.4 		"/>
		<polygon class="st170" points="232.67,642.57 540.13,643.03 540.13,646.89 196.07,646.89 196.07,646.43 		"/>
		<polygon class="st171" points="230.84,644.57 540.13,645.01 540.13,648.9 196.07,648.9 196.07,648.45 		"/>
		<polygon class="st172" points="229.01,646.57 540.13,646.99 540.13,650.9 196.07,650.9 196.07,650.48 		"/>
		<polygon class="st173" points="227.18,648.58 540.13,648.97 540.13,652.9 196.07,652.9 196.07,652.5 		"/>
		<polygon class="st174" points="225.35,650.58 540.13,650.95 540.13,654.91 196.07,654.91 196.07,654.53 		"/>
		<polygon class="st175" points="223.52,652.58 540.13,652.93 540.13,656.91 196.07,656.91 196.07,656.56 		"/>
		<polygon class="st176" points="221.69,654.58 540.13,654.91 540.13,658.91 196.07,658.91 196.07,658.58 		"/>
		<polygon class="st177" points="219.86,656.59 540.13,656.88 540.13,660.91 196.07,660.91 196.07,660.61 		"/>
		<polygon class="st178" points="218.03,658.59 540.13,658.86 540.13,662.92 196.07,662.92 196.07,662.63 		"/>
		<polygon class="st179" points="216.2,660.59 540.13,660.84 540.13,664.92 196.07,664.92 196.07,664.66 		"/>
		<polygon class="st180" points="214.37,662.59 540.13,662.82 540.13,666.92 196.07,666.92 196.07,666.69 		"/>
		<polygon class="st181" points="212.54,664.6 540.13,664.8 540.13,668.93 196.07,668.93 196.07,668.71 		"/>
		<polygon class="st182" points="210.71,666.6 540.13,666.78 540.13,670.93 196.07,670.93 196.07,670.74 		"/>
		<polygon class="st183" points="208.88,668.6 540.13,668.76 540.13,672.93 196.07,672.93 196.07,672.76 		"/>
		<polygon class="st184" points="207.05,670.61 540.13,670.74 540.13,674.93 196.07,674.93 196.07,674.79 		"/>
		<polygon class="st185" points="205.22,672.61 540.13,672.72 540.13,676.94 196.07,676.94 196.07,676.81 		"/>
		<polygon class="st186" points="203.39,674.61 540.13,674.7 540.13,678.94 196.07,678.94 196.07,678.84 		"/>
		<polygon class="st187" points="201.56,676.61 540.13,676.68 540.13,680.94 196.07,680.94 196.07,680.87 		"/>
		<polygon class="st188" points="199.73,678.62 540.13,678.66 540.13,682.94 196.07,682.94 196.07,682.89 		"/>
		<polygon class="st189" points="197.9,680.62 540.13,680.64 540.13,684.95 196.07,684.95 196.07,684.92 		"/>
		<rect x="196.07" y="682.62" class="st0" width="344.07" height="4.33"/>
	</g>
	<g>
		<path class="st190" d="M710.09,505.87c-2.34-2.34-3.35-4.52-3.38-7.83c-0.06-15.99,0.54-32.09-0.82-48
			c-3.92-45.79-41.35-85.28-86.71-92.55c-3.12-0.5-6.21-1.08-9.33-1.62h-6.97v52.67c9.28,0.39,18.44,3.55,27.31,9.48
			c18.63,12.46,25.17,30.84,23.35,53.04c-16.9-5.82-33.76-8.87-50.66-9.09v132.63c13.52,1.08,24.24,12.38,24.37,26.12
			c0.13,14-10.67,25.6-24.37,26.7v130.42h-27.98c77.04,12.68,152.95-31.25,177.03-108.3C771.39,607.25,756.09,552.2,710.09,505.87z"
			/>
	</g>
	<path class="st1" d="M547.92,471.12c18.39-6.36,36.7-9.41,54.96-9.15v132.63c-0.69-0.06-1.41-0.11-2.12-0.11
		c-14.63,0-26.55,11.94-26.51,26.59c0.02,14.63,12.01,26.51,26.66,26.42c0.67,0,1.32-0.02,1.97-0.09v130.42h-27.98
		c-8.66-1.41-17.33-3.55-25.95-6.45c-69.87-23.44-115.36-95.43-106.29-168.42c4.78-38.58,21.34-71.24,49.53-98.05
		c1.38-1.32,2.36-3.72,2.38-5.63c0.22-13.39-0.02-26.79,0.17-40.18c0.65-43.49,30.25-83.94,71.6-97.36
		c8.2-2.68,16.84-3.96,25.27-5.89h11.25v52.67c-9.39-0.39-18.89,2.08-28.26,7.44C553.72,427.95,546.1,447.12,547.92,471.12z"/>
</g>
</svg>
