<?xml version="1.0" encoding="utf-8"?>
<!-- Generator: Adobe Illustrator 25.2.3, SVG Export Plug-In . SVG Version: 6.00 Build 0)  -->
<svg version="1.1" xmlns="http://www.w3.org/2000/svg" xmlns:xlink="http://www.w3.org/1999/xlink" x="0px" y="0px"
	 viewBox="0 0 1122 1122" style="enable-background:new 0 0 1122 1122;" xml:space="preserve">
<style type="text/css">
	.st0{fill:#72716F;}
	.st1{fill:#FFC88D;}
	.st2{fill:#5C5A5A;}
</style>
<g id="BG">
</g>
<g id="Object">
	<g>
		<g id="XMLID_38_">
			<g id="XMLID_42_">
				<g id="XMLID_45_">
					<path id="XMLID_49_" class="st0" d="M865.85,613.63h-81.52V344.09c0-117.65-95.71-213.36-213.36-213.36
						s-213.36,95.71-213.36,213.36v269.55h-81.51V344.09c0-162.6,132.28-294.88,294.88-294.88s294.88,132.28,294.88,294.88V613.63z"
						/>
				</g>
				<g id="XMLID_43_">
					<path id="XMLID_44_" class="st1" d="M990.63,1021.6c0,17.46-14.15,31.61-31.61,31.61h-776.1c-17.46,0-31.61-14.15-31.61-31.61
						V517.33c0-17.46,14.15-31.61,31.61-31.61h776.1c17.46,0,31.61,14.15,31.61,31.61V1021.6z"/>
				</g>
			</g>
		</g>
		<path class="st0" d="M640.33,684c0-38.31-31.05-69.36-69.36-69.36c-38.31,0-69.36,31.05-69.36,69.36
			c0,22.84,11.08,43.03,28.11,55.67l-22.07,156.84h126.64l-22.07-156.84C629.25,727.04,640.33,706.84,640.33,684z"/>
		<path class="st2" d="M507.65,896.51c0,0,98.96-37.86,106.22-145.12l20.42,145.12H507.65z"/>
	</g>
</g>
</svg>
