<svg width="800" height="600" xmlns="http://www.w3.org/2000/svg">

 <g>
  <title>Layer 1</title>
  <g fill="white">
   <title>shopping-bag</title>
   <path d="m352.675,268.65616l22.48,0l0,-4.58a25.77,25.77 0 0 1 51.53,0l0,4.58l22.66,0a4.91,4.91 0 0 1 3.47,1.45l0,0a4.9,4.9 0 0 1 1.44,3.48l0,69.9a17.75,17.75 0 0 1 -17.7,17.7l-71.11,0a17.75,17.75 0 0 1 -17.7,-17.69l0,-69.9a4.91,4.91 0 0 1 1.45,-3.48l0,0a4.91,4.91 0 0 1 3.47,-1.45l0.01,-0.01zm28.76,0l39,0l0,-4.58a19.49,19.49 0 0 0 -39,0l0,4.58zm-6.28,13l0,-6.72l-21.13,0l0,62l94,0l0,-62l-21.34,0l0,6.76a6.48,6.48 0 1 1 -6.28,-0.12l0,-6.64l-39,0l0,6.71a6.48,6.48 0 1 1 -6.28,0l0.03,0.01z"/>
  </g>
 </g>
</svg>