<?xml version="1.0" encoding="utf-8"?>
<!-- Generator: Adobe Illustrator 28.0.0, SVG Export Plug-In . SVG Version: 6.00 Build 0)  -->
<svg version="1.1" id="Capa_1" xmlns="http://www.w3.org/2000/svg" xmlns:xlink="http://www.w3.org/1999/xlink" x="0px" y="0px"
	 viewBox="0 0 900 900" style="enable-background:new 0 0 900 900;" xml:space="preserve">
<style type="text/css">
	.st0{fill:#A397FC;}
	.st1{fill:#2B506A;}
</style>
<g>
	<path class="st0" d="M765.27,449.89c0,174.12-141.15,315.27-315.27,315.27S134.73,624.02,134.73,449.89
		c0-170.29,135.03-309.06,303.85-315.06c-4.58,43.95,12.49,87.69,46.45,114.22c26.55,20.74,57.99,26.72,87.43,24.12
		c7.94,19.78,20.71,37.39,37.72,50.68c41.5,32.41,94.95,28.79,134.07,12.61C757.82,371.66,765.27,409.91,765.27,449.89z"/>
	<circle class="st1" cx="281.86" cy="496.6" r="49.04"/>
	<circle class="st1" cx="355.42" cy="338.97" r="33.86"/>
	<circle class="st1" cx="451.17" cy="467.41" r="43.2"/>
	<circle class="st1" cx="434.82" cy="628.55" r="43.2"/>
	<circle class="st1" cx="586.62" cy="551.48" r="33.86"/>
</g>
</svg>
