<?xml version="1.0" encoding="utf-8"?>
<!-- Generator: Adobe Illustrator 25.2.3, SVG Export Plug-In . SVG Version: 6.00 Build 0)  -->
<svg version="1.1" xmlns="http://www.w3.org/2000/svg" xmlns:xlink="http://www.w3.org/1999/xlink" x="0px" y="0px"
	 viewBox="0 0 500 500" style="enable-background:new 0 0 500 500;" xml:space="preserve">
<style type="text/css">
	.st0{fill:#BC9350;}
	.st1{fill:#CEA65F;}
	.st2{fill:#9E6235;}
</style>
<g id="BACKGROUND">
</g>
<g id="OBJECTS">
	<g>
		<g>
			<path class="st0" d="M450.14,160.95l-10.15,2.9l-0.5,6.09c-1.91,1.36-3.81,2.62-5.67,3.66c-14.55,8.13-38.3,9.2-53.14-0.58
				l-10.15,2.9l2.15,3.57c-14.76,10.26-33.02,14.02-51.33,5.84c-15.63-6.98-25.93-20.35-28.17-35.36
				c-18.73,6.33-38.34,6.88-54.17-9.12c-17.65-17.83-14.83-38.65-4.66-57.21c-13.18-2.65-24.79-8.95-30.29-23.49
				c-2.67-7.05-3.29-14.36-2.22-21.36C119.72,64.2,60.04,140.72,60.04,231.18c0,111.21,90.17,201.35,201.35,201.35
				c61.15,0,115.96-27.26,152.86-70.32c30.21-35.21,48.49-81,48.49-131.03C462.75,206.47,458.28,182.82,450.14,160.95z"/>
			<path class="st1" d="M452.6,234.07c0,50.03-18.28,95.82-48.49,131.03c-0.35,0.41-0.72,0.82-1.1,1.22
				c-18.56,21.36-41.58,38.73-67.59,50.72c-25.6,11.78-54.15,18.37-84.17,18.37c-111.18,0-201.35-90.14-201.35-201.35
				c0-1.95,0.03-3.86,0.09-5.81c0.88-31.38,8.95-60.96,22.61-87.16c10.93-20.95,25.41-39.7,42.68-55.5
				c21.64-19.85,47.68-35.02,76.42-43.94c-1.07,7-0.44,14.32,2.23,21.36c2.67,7,6.72,12.12,11.68,15.77
				c5.37,3.99,11.78,6.34,18.59,7.73c-10.18,18.56-13,39.38,4.65,57.22c15.83,15.99,35.46,15.45,54.18,9.11
				c2.23,15.01,12.53,28.36,28.17,35.37c21.77,9.74,43.5,2.61,59.33-12.31c14.86,9.77,38.6,8.7,53.14,0.57
				c5.34-2.95,10.99-7.35,16.33-12.63C448.14,185.71,452.6,209.36,452.6,234.07z"/>
			<circle class="st2" cx="125.62" cy="286.44" r="41.35"/>
			<path class="st2" d="M215.34,350.63c0,11.51-9.33,20.85-20.85,20.85s-20.85-9.33-20.85-20.85c0-11.51,9.33-20.85,20.85-20.85
				S215.34,339.12,215.34,350.63z"/>
			<circle class="st2" cx="207.65" cy="245.09" r="17"/>
			<path class="st2" d="M380.66,279.1c0,9.79-7.93,17.72-17.72,17.72c-9.79,0-17.72-7.93-17.72-17.72c0-9.79,7.93-17.72,17.72-17.72
				C372.73,261.38,380.66,269.31,380.66,279.1z"/>
			<path class="st2" d="M410.89,296.87c0,5.76-4.67,10.42-10.42,10.42c-5.76,0-10.42-4.67-10.42-10.42
				c0-5.76,4.67-10.42,10.42-10.42C406.22,286.44,410.89,291.11,410.89,296.87z"/>
			<path class="st2" d="M205.61,78.79c-1.07,3.83-2.98,7.41-5.68,10.3c-7.41,7.95-20.16,10.21-29.84,5.31
				c-2.61-1.32-5.06-3.11-7.91-3.61c-8.51-1.48-14.42,8.36-22.46,11.5c-8.2,3.2-18.09-1.6-22.14-9.39
				c-1.19-2.29-1.95-4.74-2.29-7.29c21.64-19.85,47.68-35.02,76.42-43.94c-1.07,7-0.44,14.32,2.23,21.36
				C196.6,70.03,200.65,75.15,205.61,78.79z"/>
			<path class="st2" d="M76.24,209.58c-6.91,8.42-16.11,14.7-26.26,18.69c0.88-31.38,8.95-60.96,22.61-87.16
				c8.04,6.69,13.63,16.43,15.39,26.82C90.47,182.6,85.7,198.08,76.24,209.58z"/>
			<path class="st2" d="M403.01,366.33c-18.56,21.36-41.58,38.73-67.59,50.72c-4.99-3.33-9.52-7.35-13.44-11.9
				c-3.83-4.43-7.16-9.52-8.48-15.26c-1.32-5.72-0.41-12.15,3.39-16.65c4.84-5.68,13.19-7.22,18.34-12.63
				c3.93-4.15,5.46-10.02,8.83-14.64c5.5-7.51,15.64-10.8,24.87-9.45c9.2,1.38,17.46,6.85,23.62,13.85
				C396.79,355.15,400.15,360.62,403.01,366.33z"/>
			<path class="st1" d="M406.81,132.1c0,8.3-6.73,15.03-15.03,15.03c-8.3,0-15.03-6.73-15.03-15.03c0-8.3,6.73-15.03,15.03-15.03
				C400.08,117.07,406.81,123.8,406.81,132.1z"/>
			<path class="st1" d="M366.03,108.05c0,4.98-4.04,9.02-9.02,9.02c-4.98,0-9.02-4.04-9.02-9.02c0-4.98,4.04-9.02,9.02-9.02
				C361.99,99.03,366.03,103.07,366.03,108.05z"/>
			<path class="st1" d="M351.46,155.07c0,3.01-2.44,5.46-5.45,5.46c-3.01,0-5.46-2.44-5.46-5.46c0-3.01,2.44-5.46,5.46-5.46
				C349.01,149.61,351.46,152.05,351.46,155.07z"/>
			<circle class="st1" cx="275.78" cy="51.42" r="14.38"/>
			<circle class="st1" cx="260.4" cy="92.83" r="6.69"/>
			<circle class="st1" cx="324.18" cy="35.05" r="9.92"/>
		</g>
	</g>
</g>
<g id="TEXTS">
</g>
</svg>
