<?xml version="1.0" encoding="utf-8"?>
<!-- Generator: Adobe Illustrator 25.2.3, SVG Export Plug-In . SVG Version: 6.00 Build 0)  -->
<svg version="1.1" id="Capa_1" xmlns="http://www.w3.org/2000/svg" xmlns:xlink="http://www.w3.org/1999/xlink" x="0px" y="0px"
	 viewBox="0 0 1366 768" style="enable-background:new 0 0 1366 768;" xml:space="preserve">
<style type="text/css">
	.st0{fill:#FFFFFF;}
</style>
<g>
	<polygon class="st0" points="227,247.9 68.7,520.1 146.8,520.1 265,303 383.2,520.1 461.3,520.1 303,247.9 	"/>
	<polygon class="st0" points="1122,367.7 1283,247.9 1177.8,247.9 1039.7,350 1039.7,247.9 965.5,247.9 965.5,520.1 1039.7,520.1 
		1039.7,428.6 1068.3,407.1 1194.9,520.1 1297.3,520.1 	"/>
	<path class="st0" d="M890.2,336.7c0-50.7-44.3-88.8-102.8-88.8h-68l0,0h-134l0,0H518v272.3h67V419.1h0.4V419h134v0.1h40.5l65,101.1
		h76.2l-70.8-106.9C866.1,402,890.2,374.1,890.2,336.7z M786.1,366h-66.7h-134H585v-65.4h134.4l0,0h63.3c22.5,0,39.2,12.6,39.2,32.3
		C821.8,352.7,806.5,366,786.1,366z"/>
</g>
</svg>
