<svg width="800" height="600" xmlns="http://www.w3.org/2000/svg">

 <g>
  <title>Layer 1</title>
  <g fill="white">
   <g>
    <path clip-rule="evenodd" fill-rule="evenodd" d="m338.565,360.70563l0,-19.63c10.5,-4.67 42.65,-13.56 44.16,-26.41c0.34,-2.9 -6.5,-13.96 -8.07,-19.26c-3.36,-5.35 -4.56,-13.85 -0.89,-19.5c1.46,-2.25 0.84,-10.44 0.84,-13.53c0,-30.77 53.92,-30.78 53.92,0c0,3.89 -0.9,11.04 1.22,14.1c3.54,5.12 1.71,14.19 -1.27,18.93c-1.91,5.57 -9.18,16.11 -8.56,19.26c2.31,11.74 32.13,19.63 41.52,23.8l0,22.23l-122.87,0.01l0,0z" class="st0"/>
   </g>
  </g>
 </g>
</svg>