<?xml version="1.0" encoding="utf-8"?>
<!-- Generator: Adobe Illustrator 27.0.0, SVG Export Plug-In . SVG Version: 6.00 Build 0)  -->
<svg version="1.1" id="Capa_1" xmlns="http://www.w3.org/2000/svg" xmlns:xlink="http://www.w3.org/1999/xlink" x="0px" y="0px"
	 viewBox="0 0 1300 1300" style="enable-background:new 0 0 1300 1300;" xml:space="preserve">
<style type="text/css">
	.st0{fill:#EAF205;stroke:#EAF205;stroke-miterlimit:10;}
	.st1{fill:#FF0295;}
	.st2{fill:#6971E4;}
	.st3{fill:#6C74E0;}
	.st4{fill:#6E76DB;}
	.st5{fill:#7179D7;}
	.st6{fill:#737BD3;}
	.st7{fill:#767ECE;}
	.st8{fill:#7880CA;}
	.st9{fill:#7B83C5;}
	.st10{fill:#7D85C1;}
	.st11{fill:#8088BD;}
	.st12{fill:#828AB8;}
	.st13{fill:#858DB4;}
	.st14{fill:#878FB0;}
	.st15{fill:#8A92AB;}
	.st16{fill:#8C94A7;}
	.st17{fill:#8F97A2;}
	.st18{fill:#91999E;}
	.st19{fill:#949C9A;}
	.st20{fill:#979F95;}
	.st21{fill:#99A191;}
	.st22{fill:#9CA48D;}
	.st23{fill:#9EA688;}
	.st24{fill:#A1A984;}
	.st25{fill:#A3AB7F;}
	.st26{fill:#A6AE7B;}
	.st27{fill:#A8B077;}
	.st28{fill:#ABB372;}
	.st29{fill:#ADB56E;}
	.st30{fill:#B0B86A;}
	.st31{fill:#B2BA65;}
	.st32{fill:#B5BD61;}
	.st33{fill:#B7BF5C;}
	.st34{fill:#BAC258;}
	.st35{fill:#BCC454;}
	.st36{fill:#BFC74F;}
	.st37{fill:#C2CA4B;}
	.st38{fill:#C4CC47;}
	.st39{fill:#C7CF42;}
	.st40{fill:#C9D13E;}
	.st41{fill:#CCD439;}
	.st42{fill:#CED635;}
	.st43{fill:#D1D931;}
	.st44{fill:#D3DB2C;}
	.st45{fill:#D6DE28;}
	.st46{fill:#D8E024;}
	.st47{fill:#DBE31F;}
	.st48{fill:#DDE51B;}
	.st49{fill:#E0E816;}
	.st50{fill:#E2EA12;}
	.st51{fill:#E5ED0E;}
	.st52{fill:#E7EF09;}
	.st53{fill:#EAF205;}
	.st54{fill:#C18BD9;}
	.st55{fill:#F205B3;}
</style>
<g>
	<circle class="st53" cx="650" cy="650" r="326.68"/>
	<path class="st55" d="M702.86,472.39H595.68L465.6,739.73c-14.76,7.28-27.91,14.82-39.31,22.03l33.36,63.8
		c40.27-25.45,105.88-55.79,190.07-55.32c84.36,0.39,149.92,31.41,190.07,57.37l33.92-63.44c-11.58-7.49-24.97-15.33-40.03-22.92
		L702.86,472.39z M648.1,696.65c-23.14,0-45.07,1.99-65.71,5.38l66.88-144.9l67.4,145.37c-20.92-3.59-43.17-5.74-66.67-5.85
		C649.36,696.65,648.74,696.65,648.1,696.65z"/>
</g>
</svg>
