<?xml version="1.0" encoding="utf-8"?>
<!-- Generator: Adobe Illustrator 27.0.0, SVG Export Plug-In . SVG Version: 6.00 Build 0)  -->
<svg version="1.1" id="Capa_1" xmlns="http://www.w3.org/2000/svg" xmlns:xlink="http://www.w3.org/1999/xlink" x="0px" y="0px"
	 viewBox="0 0 1300 1300" style="enable-background:new 0 0 1300 1300;" xml:space="preserve">
<style type="text/css">
	.st0{fill:#EAF205;stroke:#EAF205;stroke-miterlimit:10;}
	.st1{fill:#FF0295;}
	.st2{fill:#6971E4;}
	.st3{fill:#6C74E0;}
	.st4{fill:#6E76DB;}
	.st5{fill:#7179D7;}
	.st6{fill:#737BD3;}
	.st7{fill:#767ECE;}
	.st8{fill:#7880CA;}
	.st9{fill:#7B83C5;}
	.st10{fill:#7D85C1;}
	.st11{fill:#8088BD;}
	.st12{fill:#828AB8;}
	.st13{fill:#858DB4;}
	.st14{fill:#878FB0;}
	.st15{fill:#8A92AB;}
	.st16{fill:#8C94A7;}
	.st17{fill:#8F97A2;}
	.st18{fill:#91999E;}
	.st19{fill:#949C9A;}
	.st20{fill:#979F95;}
	.st21{fill:#99A191;}
	.st22{fill:#9CA48D;}
	.st23{fill:#9EA688;}
	.st24{fill:#A1A984;}
	.st25{fill:#A3AB7F;}
	.st26{fill:#A6AE7B;}
	.st27{fill:#A8B077;}
	.st28{fill:#ABB372;}
	.st29{fill:#ADB56E;}
	.st30{fill:#B0B86A;}
	.st31{fill:#B2BA65;}
	.st32{fill:#B5BD61;}
	.st33{fill:#B7BF5C;}
	.st34{fill:#BAC258;}
	.st35{fill:#BCC454;}
	.st36{fill:#BFC74F;}
	.st37{fill:#C2CA4B;}
	.st38{fill:#C4CC47;}
	.st39{fill:#C7CF42;}
	.st40{fill:#C9D13E;}
	.st41{fill:#CCD439;}
	.st42{fill:#CED635;}
	.st43{fill:#D1D931;}
	.st44{fill:#D3DB2C;}
	.st45{fill:#D6DE28;}
	.st46{fill:#D8E024;}
	.st47{fill:#DBE31F;}
	.st48{fill:#DDE51B;}
	.st49{fill:#E0E816;}
	.st50{fill:#E2EA12;}
	.st51{fill:#E5ED0E;}
	.st52{fill:#E7EF09;}
	.st53{fill:#EAF205;}
	.st54{fill:#C18BD9;}
	.st55{fill:#F205B3;}
</style>
<g>
	<rect x="358.45" y="371.12" class="st2" width="674.38" height="674.38"/>
	<rect x="356.66" y="368.84" class="st3" width="674.38" height="674.38"/>
	<rect x="354.87" y="366.55" class="st4" width="674.38" height="674.38"/>
	<rect x="353.08" y="364.26" class="st5" width="674.38" height="674.38"/>
	<rect x="351.29" y="361.98" class="st6" width="674.38" height="674.38"/>
	<rect x="349.5" y="359.69" class="st7" width="674.38" height="674.38"/>
	<rect x="347.71" y="357.4" class="st8" width="674.38" height="674.38"/>
	<rect x="345.92" y="355.11" class="st9" width="674.38" height="674.38"/>
	<rect x="344.13" y="352.83" class="st10" width="674.38" height="674.38"/>
	<rect x="342.34" y="350.54" class="st11" width="674.38" height="674.38"/>
	<rect x="340.55" y="348.25" class="st12" width="674.38" height="674.38"/>
	<rect x="338.76" y="345.97" class="st13" width="674.38" height="674.38"/>
	<rect x="336.97" y="343.68" class="st14" width="674.38" height="674.38"/>
	<rect x="335.18" y="341.39" class="st15" width="674.38" height="674.38"/>
	<rect x="333.39" y="339.11" class="st16" width="674.38" height="674.38"/>
	<rect x="331.6" y="336.82" class="st17" width="674.38" height="674.38"/>
	<rect x="329.81" y="334.53" class="st18" width="674.38" height="674.38"/>
	<rect x="328.02" y="332.25" class="st19" width="674.38" height="674.38"/>
	<rect x="326.23" y="329.96" class="st20" width="674.38" height="674.38"/>
	<rect x="324.44" y="327.67" class="st21" width="674.38" height="674.38"/>
	<rect x="322.65" y="325.39" class="st22" width="674.38" height="674.38"/>
	<rect x="320.86" y="323.1" class="st23" width="674.38" height="674.38"/>
	<rect x="319.07" y="320.81" class="st24" width="674.38" height="674.38"/>
	<rect x="317.28" y="318.53" class="st25" width="674.38" height="674.38"/>
	<rect x="315.5" y="316.24" class="st26" width="674.38" height="674.38"/>
	<rect x="313.71" y="313.95" class="st27" width="674.38" height="674.38"/>
	<rect x="311.92" y="311.67" class="st28" width="674.38" height="674.38"/>
	<rect x="310.13" y="309.38" class="st29" width="674.38" height="674.38"/>
	<rect x="308.34" y="307.09" class="st30" width="674.38" height="674.38"/>
	<rect x="306.55" y="304.81" class="st31" width="674.38" height="674.38"/>
	<rect x="304.76" y="302.52" class="st32" width="674.38" height="674.38"/>
	<rect x="302.97" y="300.23" class="st33" width="674.38" height="674.38"/>
	<rect x="301.18" y="297.95" class="st34" width="674.38" height="674.38"/>
	<rect x="299.39" y="295.66" class="st35" width="674.38" height="674.38"/>
	<rect x="297.6" y="293.37" class="st36" width="674.38" height="674.38"/>
	<rect x="295.81" y="291.09" class="st37" width="674.38" height="674.38"/>
	<rect x="294.02" y="288.8" class="st38" width="674.38" height="674.38"/>
	<rect x="292.23" y="286.51" class="st39" width="674.38" height="674.38"/>
	<rect x="290.44" y="284.23" class="st40" width="674.38" height="674.38"/>
	<rect x="288.65" y="281.94" class="st41" width="674.38" height="674.38"/>
	<rect x="286.86" y="279.65" class="st42" width="674.38" height="674.38"/>
	<rect x="285.07" y="277.37" class="st43" width="674.38" height="674.38"/>
	<rect x="283.28" y="275.08" class="st44" width="674.38" height="674.38"/>
	<rect x="281.49" y="272.79" class="st45" width="674.38" height="674.38"/>
	<rect x="279.7" y="270.51" class="st46" width="674.38" height="674.38"/>
	<rect x="277.91" y="268.22" class="st47" width="674.38" height="674.38"/>
	<rect x="276.12" y="265.93" class="st48" width="674.38" height="674.38"/>
	<rect x="274.33" y="263.65" class="st49" width="674.38" height="674.38"/>
	<rect x="272.55" y="261.36" class="st50" width="674.38" height="674.38"/>
	<rect x="270.76" y="259.07" class="st51" width="674.38" height="674.38"/>
	<rect x="268.97" y="256.79" class="st52" width="674.38" height="674.38"/>
	<rect x="267.18" y="254.5" class="st53" width="674.38" height="674.38"/>
</g>
</svg>
