<?xml version="1.0" encoding="utf-8"?>
<!-- Generator: Adobe Illustrator 27.0.0, SVG Export Plug-In . SVG Version: 6.00 Build 0)  -->
<svg version="1.1" id="Capa_1" xmlns="http://www.w3.org/2000/svg" xmlns:xlink="http://www.w3.org/1999/xlink" x="0px" y="0px"
	 viewBox="0 0 500 500" style="enable-background:new 0 0 500 500;" xml:space="preserve">
<style type="text/css">
	.st0{fill:#EAF205;}
	.st1{fill:#6971E4;}
	.st2{fill:#6A72E2;}
	.st3{fill:#6B73E0;}
	.st4{fill:#6D75DE;}
	.st5{fill:#6E76DC;}
	.st6{fill:#6F77DA;}
	.st7{fill:#7078D8;}
	.st8{fill:#7179D6;}
	.st9{fill:#737BD3;}
	.st10{fill:#747CD1;}
	.st11{fill:#757DCF;}
	.st12{fill:#767ECD;}
	.st13{fill:#777FCB;}
	.st14{fill:#7981C9;}
	.st15{fill:#7A82C7;}
	.st16{fill:#7B83C5;}
	.st17{fill:#7C84C3;}
	.st18{fill:#7D85C1;}
	.st19{fill:#7F87BF;}
	.st20{fill:#8088BD;}
	.st21{fill:#8189BB;}
	.st22{fill:#828AB9;}
	.st23{fill:#838BB7;}
	.st24{fill:#848CB5;}
	.st25{fill:#868EB2;}
	.st26{fill:#878FB0;}
	.st27{fill:#8890AE;}
	.st28{fill:#8991AC;}
	.st29{fill:#8A92AA;}
	.st30{fill:#8C94A8;}
	.st31{fill:#8D95A6;}
	.st32{fill:#8E96A4;}
	.st33{fill:#8F97A2;}
	.st34{fill:#9098A0;}
	.st35{fill:#929A9E;}
	.st36{fill:#939B9C;}
	.st37{fill:#949C9A;}
	.st38{fill:#959D98;}
	.st39{fill:#969E96;}
	.st40{fill:#98A093;}
	.st41{fill:#99A191;}
	.st42{fill:#9AA28F;}
	.st43{fill:#9BA38D;}
	.st44{fill:#9CA48B;}
	.st45{fill:#9EA689;}
	.st46{fill:#9FA787;}
	.st47{fill:#A0A885;}
	.st48{fill:#A1A983;}
	.st49{fill:#A2AA81;}
	.st50{fill:#A4AC7F;}
	.st51{fill:#A5AD7D;}
	.st52{fill:#A6AE7B;}
	.st53{fill:#A7AF79;}
	.st54{fill:#A8B077;}
	.st55{fill:#A9B175;}
	.st56{fill:#ABB372;}
	.st57{fill:#ACB470;}
	.st58{fill:#ADB56E;}
	.st59{fill:#AEB66C;}
	.st60{fill:#AFB76A;}
	.st61{fill:#B1B968;}
	.st62{fill:#B2BA66;}
	.st63{fill:#B3BB64;}
	.st64{fill:#B4BC62;}
	.st65{fill:#B5BD60;}
	.st66{fill:#B7BF5E;}
	.st67{fill:#B8C05C;}
	.st68{fill:#B9C15A;}
	.st69{fill:#BAC258;}
	.st70{fill:#BBC356;}
	.st71{fill:#BDC553;}
	.st72{fill:#BEC651;}
	.st73{fill:#BFC74F;}
	.st74{fill:#C0C84D;}
	.st75{fill:#C1C94B;}
	.st76{fill:#C3CB49;}
	.st77{fill:#C4CC47;}
	.st78{fill:#C5CD45;}
	.st79{fill:#C6CE43;}
	.st80{fill:#C7CF41;}
	.st81{fill:#C9D13F;}
	.st82{fill:#CAD23D;}
	.st83{fill:#CBD33B;}
	.st84{fill:#CCD439;}
	.st85{fill:#CDD537;}
	.st86{fill:#CFD734;}
	.st87{fill:#D0D832;}
	.st88{fill:#D1D930;}
	.st89{fill:#D2DA2E;}
	.st90{fill:#D3DB2C;}
	.st91{fill:#D4DC2A;}
	.st92{fill:#D6DE28;}
	.st93{fill:#D7DF26;}
	.st94{fill:#D8E024;}
	.st95{fill:#D9E122;}
	.st96{fill:#DAE220;}
	.st97{fill:#DCE41E;}
	.st98{fill:#DDE51C;}
	.st99{fill:#DEE61A;}
	.st100{fill:#DFE718;}
	.st101{fill:#E0E816;}
	.st102{fill:#E2EA13;}
	.st103{fill:#E3EB11;}
	.st104{fill:#E4EC0F;}
	.st105{fill:#E5ED0D;}
	.st106{fill:#E6EE0B;}
	.st107{fill:#E8F009;}
	.st108{fill:#E9F107;}
	.st109{fill:#C18BD9;}
	.st110{fill:#FF0295;}
	.st111{fill:#F2529D;}
</style>
<g>
	<path class="st0" d="M354.31,68.4v135.23h-6.45c-4.84,1.1-9.79,1.84-14.49,3.37c-23.71,7.69-40.68,30.88-41.05,55.82
		c-0.11,7.68,0.02,15.36-0.1,23.04c-0.01,1.09-0.57,2.47-1.36,3.23c-16.17,15.37-25.66,34.09-28.4,56.21
		c-5.2,41.85,20.88,83.12,60.94,96.56c4.94,1.66,9.91,2.89,14.88,3.7H88.82V68.4H354.31z"/>
	<path class="st0" d="M354.31,233.83v30.63c-10.47-0.15-20.97,1.6-31.51,5.25c-1.04-13.76,3.32-24.75,15.31-31.61
		C343.48,235.02,348.93,233.6,354.31,233.83z"/>
	<path class="st0" d="M353.1,340.43c0.41,0,0.82,0.02,1.22,0.06v30.28c-0.37,0.04-0.74,0.05-1.13,0.05
		c-8.4,0.05-15.27-6.76-15.28-15.15C337.87,347.28,344.71,340.43,353.1,340.43z"/>
	<rect x="164.5" y="130.43" class="st1" width="115.38" height="4.96"/>
	<g>
		<rect x="121.07" y="175.1" class="st1" width="197.26" height="2.48"/>
		<polygon class="st2" points="316.51,177.09 318.33,179.55 318.33,179.58 121.07,179.58 121.07,177.12 		"/>
		<polygon class="st3" points="314.68,179.09 318.33,181.53 318.33,181.57 121.07,181.57 121.07,179.14 		"/>
		<polygon class="st4" points="312.85,181.09 318.33,183.5 318.33,183.57 121.07,183.57 121.07,181.16 		"/>
		<polygon class="st5" points="311.03,183.09 318.33,185.48 318.33,185.57 121.07,185.57 121.07,183.18 		"/>
		<polygon class="st6" points="309.2,185.09 318.33,187.45 318.33,187.57 121.07,187.57 121.07,185.2 		"/>
		<polygon class="st7" points="307.37,187.09 318.33,189.43 318.33,189.57 121.07,189.57 121.07,187.23 		"/>
		<polygon class="st8" points="305.55,189.09 318.33,191.41 318.33,191.57 121.07,191.57 121.07,189.25 		"/>
		<polygon class="st9" points="303.72,191.09 318.33,193.38 318.33,193.57 121.07,193.57 121.07,191.27 		"/>
		<polygon class="st10" points="301.89,193.08 318.33,195.36 318.33,195.57 121.07,195.57 121.07,193.29 		"/>
		<polygon class="st11" points="300.07,195.08 318.33,197.33 318.33,197.56 121.07,197.56 121.07,195.31 		"/>
		<polygon class="st12" points="298.24,197.08 318.33,199.31 318.33,199.56 121.07,199.56 121.07,197.33 		"/>
		<polygon class="st13" points="296.42,199.08 318.33,201.29 318.33,201.56 121.07,201.56 121.07,199.36 		"/>
		<polygon class="st14" points="294.59,201.08 318.33,203.26 318.33,203.56 121.07,203.56 121.07,201.38 		"/>
		<polygon class="st15" points="292.76,203.08 318.33,205.24 318.33,205.56 121.07,205.56 121.07,203.4 		"/>
		<polygon class="st16" points="290.94,205.08 318.33,207.21 318.33,207.56 121.07,207.56 121.07,205.42 		"/>
		<polygon class="st17" points="289.11,207.08 318.33,209.19 318.33,209.56 121.07,209.56 121.07,207.44 		"/>
		<polygon class="st18" points="287.28,209.07 318.33,211.16 318.33,211.56 121.07,211.56 121.07,209.47 		"/>
		<polygon class="st19" points="285.46,211.07 318.33,213.14 318.33,213.55 121.07,213.55 121.07,211.49 		"/>
		<polygon class="st20" points="283.63,213.07 318.33,215.12 318.33,215.55 121.07,215.55 121.07,213.51 		"/>
		<polygon class="st21" points="281.8,215.07 318.33,217.09 318.33,217.55 121.07,217.55 121.07,215.53 		"/>
		<polygon class="st22" points="279.98,217.07 318.33,219.07 318.33,219.55 121.07,219.55 121.07,217.55 		"/>
		<polygon class="st23" points="278.15,219.07 318.33,221.04 318.33,221.55 121.07,221.55 121.07,219.57 		"/>
		<polygon class="st24" points="276.32,221.07 318.33,223.02 318.33,223.55 121.07,223.55 121.07,221.6 		"/>
		<polygon class="st25" points="274.5,223.07 318.33,225 318.33,225.55 121.07,225.55 121.07,223.62 		"/>
		<polygon class="st26" points="272.67,225.06 318.33,226.97 318.33,227.55 121.07,227.55 121.07,225.64 		"/>
		<polygon class="st27" points="270.84,227.06 318.33,228.95 318.33,229.54 121.07,229.54 121.07,227.66 		"/>
		<polygon class="st28" points="269.02,229.06 318.33,230.92 318.33,231.54 121.07,231.54 121.07,229.68 		"/>
		<polygon class="st29" points="267.19,231.06 318.33,232.9 318.33,233.54 121.07,233.54 121.07,231.7 		"/>
		<polygon class="st30" points="265.36,233.06 318.33,234.87 318.33,235.54 121.07,235.54 121.07,233.73 		"/>
		<polygon class="st31" points="263.54,235.06 318.33,236.85 318.33,237.54 121.07,237.54 121.07,235.75 		"/>
		<polygon class="st32" points="261.71,237.06 318.33,238.83 318.33,239.54 121.07,239.54 121.07,237.77 		"/>
		<polygon class="st33" points="259.89,239.06 318.33,240.8 318.33,241.54 121.07,241.54 121.07,239.79 		"/>
		<polygon class="st34" points="258.06,241.06 318.33,242.78 318.33,243.54 121.07,243.54 121.07,241.81 		"/>
		<polygon class="st35" points="256.23,243.05 318.33,244.75 318.33,245.54 121.07,245.54 121.07,243.83 		"/>
		<polygon class="st36" points="254.41,245.05 318.33,246.73 318.33,247.53 121.07,247.53 121.07,245.86 		"/>
		<polygon class="st37" points="252.58,247.05 318.33,248.7 318.33,249.53 121.07,249.53 121.07,247.88 		"/>
		<polygon class="st38" points="250.75,249.05 318.33,250.68 318.33,251.53 121.07,251.53 121.07,249.9 		"/>
		<polygon class="st39" points="248.93,251.05 318.33,252.66 318.33,253.53 121.07,253.53 121.07,251.92 		"/>
		<polygon class="st40" points="247.1,253.05 318.33,254.63 318.33,255.53 121.07,255.53 121.07,253.94 		"/>
		<polygon class="st41" points="245.27,255.05 318.33,256.61 318.33,257.53 121.07,257.53 121.07,255.97 		"/>
		<polygon class="st42" points="243.45,257.05 318.33,258.58 318.33,259.53 121.07,259.53 121.07,257.99 		"/>
		<polygon class="st43" points="241.62,259.04 318.33,260.56 318.33,261.53 121.07,261.53 121.07,260.01 		"/>
		<polygon class="st44" points="239.79,261.04 318.33,262.54 318.33,263.52 121.07,263.52 121.07,262.03 		"/>
		<polygon class="st45" points="237.97,263.04 318.33,264.51 318.33,265.52 121.07,265.52 121.07,264.05 		"/>
		<polygon class="st46" points="236.14,265.04 318.33,266.49 318.33,267.52 121.07,267.52 121.07,266.07 		"/>
		<polygon class="st47" points="234.31,267.04 318.33,268.46 318.33,269.52 121.07,269.52 121.07,268.1 		"/>
		<polygon class="st48" points="232.49,269.04 318.33,270.44 318.33,271.52 121.07,271.52 121.07,270.12 		"/>
		<polygon class="st49" points="230.66,271.04 318.33,272.41 318.33,273.52 121.07,273.52 121.07,272.14 		"/>
		<polygon class="st50" points="228.84,273.04 318.33,274.39 318.33,275.52 121.07,275.52 121.07,274.16 		"/>
		<polygon class="st51" points="227.01,275.03 318.33,276.37 318.33,277.52 121.07,277.52 121.07,276.18 		"/>
		<polygon class="st52" points="225.18,277.03 318.33,278.34 318.33,279.51 121.07,279.51 121.07,278.2 		"/>
		<polygon class="st53" points="223.36,279.03 318.33,280.32 318.33,281.51 121.07,281.51 121.07,280.23 		"/>
		<polygon class="st54" points="221.53,281.03 318.33,282.29 318.33,283.51 121.07,283.51 121.07,282.25 		"/>
		<polygon class="st55" points="219.7,283.03 318.33,284.27 318.33,285.51 121.07,285.51 121.07,284.27 		"/>
		<polygon class="st56" points="217.88,285.03 318.33,286.25 318.33,287.51 121.07,287.51 121.07,286.29 		"/>
		<polygon class="st57" points="216.05,287.03 318.33,288.22 318.33,289.51 121.07,289.51 121.07,288.31 		"/>
		<polygon class="st58" points="214.22,289.03 318.33,290.2 318.33,291.51 121.07,291.51 121.07,290.34 		"/>
		<polygon class="st59" points="212.4,291.02 318.33,292.17 318.33,293.51 121.07,293.51 121.07,292.36 		"/>
		<polygon class="st60" points="210.57,293.02 318.33,294.15 318.33,295.5 121.07,295.5 121.07,294.38 		"/>
		<polygon class="st61" points="208.74,295.02 318.33,296.12 318.33,297.5 121.07,297.5 121.07,296.4 		"/>
		<polygon class="st62" points="206.92,297.02 318.33,298.1 318.33,299.5 121.07,299.5 121.07,298.42 		"/>
		<polygon class="st63" points="205.09,299.02 318.33,300.08 318.33,301.5 121.07,301.5 121.07,300.44 		"/>
		<polygon class="st64" points="203.26,301.02 318.33,302.05 318.33,303.5 121.07,303.5 121.07,302.47 		"/>
		<polygon class="st65" points="201.44,303.02 318.33,304.03 318.33,305.5 121.07,305.5 121.07,304.49 		"/>
		<polygon class="st66" points="199.61,305.02 318.33,306 318.33,307.5 121.07,307.5 121.07,306.51 		"/>
		<polygon class="st67" points="197.79,307.02 318.33,307.98 318.33,309.5 121.07,309.5 121.07,308.53 		"/>
		<polygon class="st68" points="195.96,309.01 318.33,309.96 318.33,311.5 121.07,311.5 121.07,310.55 		"/>
		<polygon class="st69" points="194.13,311.01 318.33,311.93 318.33,313.49 121.07,313.49 121.07,312.57 		"/>
		<polygon class="st70" points="192.31,313.01 318.33,313.91 318.33,315.49 121.07,315.49 121.07,314.6 		"/>
		<polygon class="st71" points="190.48,315.01 318.33,315.88 318.33,317.49 121.07,317.49 121.07,316.62 		"/>
		<polygon class="st72" points="188.65,317.01 318.33,317.86 318.33,319.49 121.07,319.49 121.07,318.64 		"/>
		<polygon class="st73" points="186.83,319.01 318.33,319.83 318.33,321.49 121.07,321.49 121.07,320.66 		"/>
		<polygon class="st74" points="185,321.01 318.33,321.81 318.33,323.49 121.07,323.49 121.07,322.68 		"/>
		<polygon class="st75" points="183.17,323.01 318.33,323.79 318.33,325.49 121.07,325.49 121.07,324.7 		"/>
		<polygon class="st76" points="181.35,325 318.33,325.76 318.33,327.49 121.07,327.49 121.07,326.73 		"/>
		<polygon class="st77" points="179.52,327 318.33,327.74 318.33,329.48 121.07,329.48 121.07,328.75 		"/>
		<polygon class="st78" points="177.69,329 318.33,329.71 318.33,331.48 121.07,331.48 121.07,330.77 		"/>
		<polygon class="st79" points="175.87,331 318.33,331.69 318.33,333.48 121.07,333.48 121.07,332.79 		"/>
		<polygon class="st80" points="174.04,333 318.33,333.67 318.33,335.48 121.07,335.48 121.07,334.81 		"/>
		<polygon class="st81" points="172.21,335 318.33,335.64 318.33,337.48 121.07,337.48 121.07,336.84 		"/>
		<polygon class="st82" points="170.39,337 318.33,337.62 318.33,339.48 121.07,339.48 121.07,338.86 		"/>
		<polygon class="st83" points="168.56,339 318.33,339.59 318.33,341.48 121.07,341.48 121.07,340.88 		"/>
		<polygon class="st84" points="166.74,340.99 318.33,341.57 318.33,343.48 121.07,343.48 121.07,342.9 		"/>
		<polygon class="st85" points="164.91,342.99 318.33,343.54 318.33,345.47 121.07,345.47 121.07,344.92 		"/>
		<polygon class="st86" points="163.08,344.99 318.33,345.52 318.33,347.47 121.07,347.47 121.07,346.94 		"/>
		<polygon class="st87" points="161.26,346.99 318.33,347.5 318.33,349.47 121.07,349.47 121.07,348.97 		"/>
		<polygon class="st88" points="159.43,348.99 318.33,349.47 318.33,351.47 121.07,351.47 121.07,350.99 		"/>
		<polygon class="st89" points="157.6,350.99 318.33,351.45 318.33,353.47 121.07,353.47 121.07,353.01 		"/>
		<polygon class="st90" points="155.78,352.99 318.33,353.42 318.33,355.47 121.07,355.47 121.07,355.03 		"/>
		<polygon class="st91" points="153.95,354.99 318.33,355.4 318.33,357.47 121.07,357.47 121.07,357.05 		"/>
		<polygon class="st92" points="152.12,356.98 318.33,357.38 318.33,359.47 121.07,359.47 121.07,359.07 		"/>
		<polygon class="st93" points="150.3,358.98 318.33,359.35 318.33,361.46 121.07,361.46 121.07,361.1 		"/>
		<polygon class="st94" points="148.47,360.98 318.33,361.33 318.33,363.46 121.07,363.46 121.07,363.12 		"/>
		<polygon class="st95" points="146.64,362.98 318.33,363.3 318.33,365.46 121.07,365.46 121.07,365.14 		"/>
		<polygon class="st96" points="144.82,364.98 318.33,365.28 318.33,367.46 121.07,367.46 121.07,367.16 		"/>
		<polygon class="st97" points="142.99,366.98 318.33,367.25 318.33,369.46 121.07,369.46 121.07,369.18 		"/>
		<polygon class="st98" points="141.16,368.98 318.33,369.23 318.33,371.46 121.07,371.46 121.07,371.21 		"/>
		<polygon class="st99" points="139.34,370.98 318.33,371.21 318.33,373.46 121.07,373.46 121.07,373.23 		"/>
		<polygon class="st100" points="137.51,372.98 318.33,373.18 318.33,375.46 121.07,375.46 121.07,375.25 		"/>
		<polygon class="st101" points="135.69,374.97 318.33,375.16 318.33,377.46 121.07,377.46 121.07,377.27 		"/>
		<polygon class="st102" points="133.86,376.97 318.33,377.13 318.33,379.45 121.07,379.45 121.07,379.29 		"/>
		<polygon class="st103" points="132.03,378.97 318.33,379.11 318.33,381.45 121.07,381.45 121.07,381.31 		"/>
		<polygon class="st104" points="130.21,380.97 318.33,381.09 318.33,383.45 121.07,383.45 121.07,383.34 		"/>
		<polygon class="st105" points="128.38,382.97 318.33,383.06 318.33,385.45 121.07,385.45 121.07,385.36 		"/>
		<polygon class="st106" points="126.55,384.97 318.33,385.04 318.33,387.45 121.07,387.45 121.07,387.38 		"/>
		<polygon class="st107" points="124.73,386.97 318.33,387.01 318.33,389.45 121.07,389.45 121.07,389.4 		"/>
		<polygon class="st108" points="122.9,388.97 318.33,388.99 318.33,391.45 121.07,391.45 121.07,391.42 		"/>
		<rect x="121.07" y="390.96" class="st0" width="197.26" height="2.48"/>
	</g>
	<path class="st1" d="M415.77,289.63c-1.34-1.34-1.92-2.59-1.94-4.49c-0.04-9.17,0.31-18.4-0.47-27.52
		c-2.25-26.25-23.71-48.89-49.71-53.06c-1.79-0.29-3.56-0.62-5.35-0.93h-3.99v30.2c5.32,0.22,10.57,2.03,15.66,5.43
		c10.68,7.15,14.43,17.68,13.39,30.41c-9.69-3.34-19.35-5.09-29.04-5.21v76.04c7.75,0.62,13.9,7.1,13.97,14.97
		c0.07,8.03-6.12,14.68-13.97,15.31v74.77h-16.04c44.17,7.27,87.69-17.91,101.5-62.09C450.92,347.75,442.15,316.19,415.77,289.63z"
		/>
	<path class="st109" d="M322.8,269.71c10.55-3.65,21.04-5.4,31.51-5.25v76.04c-0.4-0.04-0.81-0.06-1.22-0.06
		c-8.39,0-15.22,6.85-15.2,15.25c0.01,8.39,6.89,15.2,15.28,15.15c0.38,0,0.76-0.01,1.13-0.05v74.77h-16.04
		c-4.96-0.81-9.94-2.03-14.88-3.7c-40.06-13.44-66.14-54.71-60.94-96.56c2.74-22.12,12.23-40.84,28.4-56.21
		c0.79-0.76,1.35-2.13,1.36-3.23c0.12-7.68-0.01-15.36,0.1-23.04c0.37-24.94,17.34-48.12,41.05-55.82c4.7-1.54,9.65-2.27,14.49-3.37
		h6.45v30.2c-5.38-0.22-10.83,1.19-16.2,4.27C326.12,244.95,321.76,255.95,322.8,269.71z"/>
</g>
</svg>
