<?xml version="1.0" encoding="utf-8"?>
<!-- Generator: Adobe Illustrator 28.0.0, SVG Export Plug-In . SVG Version: 6.00 Build 0)  -->
<svg version="1.1" id="Capa_1" xmlns="http://www.w3.org/2000/svg" xmlns:xlink="http://www.w3.org/1999/xlink" x="0px" y="0px"
	 viewBox="0 0 1366 768" style="enable-background:new 0 0 1366 768;" xml:space="preserve">
<g>
	<polygon points="227.01,247.86 68.68,520.14 146.79,520.14 265.01,303 383.23,520.14 461.34,520.14 303.01,247.86 	"/>
	<polygon points="1122.04,367.66 1283.02,247.86 1177.85,247.86 1039.67,349.96 1039.67,247.86 965.48,247.86 965.48,520.14 
		1039.67,520.14 1039.67,428.58 1068.27,407.14 1194.87,520.14 1297.32,520.14 	"/>
	<path d="M890.25,336.68c0-50.7-44.26-88.83-102.8-88.83h-68.04v0H585.39v0h-67.41v272.29h67.04V419.06h0.37v-0.09h134.02v0.09
		h40.46l65.02,101.09h76.22l-70.78-106.88C866.07,402.04,890.25,374.12,890.25,336.68z M786.09,365.96h-66.67H585.39h-0.37v-65.36
		h134.39v0h63.28c22.47,0,39.15,12.6,39.15,32.34C821.85,352.68,806.5,365.96,786.09,365.96z"/>
</g>
</svg>
