<?xml version="1.0" encoding="utf-8"?>
<!-- Generator: Adobe Illustrator 25.2.3, SVG Export Plug-In . SVG Version: 6.00 Build 0)  -->
<svg version="1.1" xmlns="http://www.w3.org/2000/svg" xmlns:xlink="http://www.w3.org/1999/xlink" x="0px" y="0px"
	 viewBox="0 0 2436 2436" style="enable-background:new 0 0 2436 2436;" xml:space="preserve">
<style type="text/css">
	.st0{display:none;}
	.st1{display:inline;fill:#2B506A;}
	.st2{display:inline;fill:#FE9695;}
	.st3{display:inline;fill:#FFC88D;}
	.st4{display:inline;fill:#A397FC;}
	.st5{display:inline;fill:#A597FB;}
	.st6{display:inline;fill:#A796F9;}
	.st7{display:inline;fill:#A896F8;}
	.st8{display:inline;fill:#AA96F7;}
	.st9{display:inline;fill:#AC96F5;}
	.st10{display:inline;fill:#AE95F4;}
	.st11{display:inline;fill:#B095F3;}
	.st12{display:inline;fill:#B195F1;}
	.st13{display:inline;fill:#B394F0;}
	.st14{display:inline;fill:#B594EF;}
	.st15{display:inline;fill:#B794EE;}
	.st16{display:inline;fill:#B993EC;}
	.st17{display:inline;fill:#BA93EB;}
	.st18{display:inline;fill:#BC93EA;}
	.st19{display:inline;fill:#BE93E8;}
	.st20{display:inline;fill:#C092E7;}
	.st21{display:inline;fill:#C292E6;}
	.st22{display:inline;fill:#C392E4;}
	.st23{display:inline;fill:#C591E3;}
	.st24{display:inline;fill:#C791E2;}
	.st25{display:inline;fill:#C991E0;}
	.st26{display:inline;fill:#CB91DF;}
	.st27{display:inline;fill:#CC90DE;}
	.st28{display:inline;fill:#CE90DC;}
	.st29{display:inline;fill:#D090DB;}
	.st30{display:inline;fill:#D28FDA;}
	.st31{display:inline;fill:#D48FD9;}
	.st32{display:inline;fill:#D68FD7;}
	.st33{display:inline;fill:#D78ED6;}
	.st34{display:inline;fill:#D98ED5;}
	.st35{display:inline;fill:#DB8ED3;}
	.st36{display:inline;fill:#DD8ED2;}
	.st37{display:inline;fill:#DF8DD1;}
	.st38{display:inline;fill:#E08DCF;}
	.st39{display:inline;fill:#E28DCE;}
	.st40{display:inline;fill:#E48CCD;}
	.st41{display:inline;fill:#E68CCB;}
	.st42{display:inline;fill:#E88CCA;}
	.st43{display:inline;fill:#E98CC9;}
	.st44{display:inline;fill:#EB8BC7;}
	.st45{display:inline;fill:#ED8BC6;}
	.st46{display:inline;fill:#EF8BC5;}
	.st47{display:inline;fill:#F18AC4;}
	.st48{display:inline;fill:#F28AC2;}
	.st49{display:inline;fill:#F48AC1;}
	.st50{display:inline;fill:#F689C0;}
	.st51{display:inline;fill:#F889BE;}
	.st52{display:inline;fill:#FA89BD;}
	.st53{display:inline;fill:#FB89BC;}
	.st54{display:inline;fill:#FD88BA;}
	.st55{display:inline;fill:#FF0295;}
	.st56{fill:#FF0295;}
	.st57{fill:#A397FC;}
	.st58{fill:#A1D2FF;}
	.st59{display:inline;fill:#8C8BAD;}
	.st60{display:inline;fill:#FFFFFF;}
</style>
<g id="Capa_1" class="st0">
	<rect x="107.41" y="1044.4" class="st1" width="2188.59" height="59.15"/>
	<rect x="107.41" y="1310.58" class="st1" width="2188.59" height="59.15"/>
	<rect x="107.41" y="1561.97" class="st1" width="2188.59" height="59.15"/>
	<path class="st2" d="M674.28,1073.98c0,130.68-105.92,236.6-236.6,236.6s-236.6-105.92-236.6-236.6
		c0-130.68,105.92-236.6,236.6-236.6S674.28,943.3,674.28,1073.98"/>
	<path class="st3" d="M1265.79,1488.04c0,130.68-105.92,236.6-236.6,236.6s-236.6-105.92-236.6-236.6
		c0-130.68,105.92-236.6,236.6-236.6S1265.79,1357.36,1265.79,1488.04"/>
</g>
<g id="Capa_2" class="st0">
	<rect x="522.98" y="518.91" class="st4" width="1555.09" height="1555.09"/>
	<rect x="518.85" y="513.64" class="st5" width="1555.09" height="1555.09"/>
	<rect x="514.73" y="508.37" class="st6" width="1555.09" height="1555.09"/>
	<rect x="510.6" y="503.1" class="st7" width="1555.09" height="1555.09"/>
	<rect x="506.48" y="497.82" class="st8" width="1555.09" height="1555.09"/>
	<rect x="502.34" y="492.55" class="st9" width="1555.09" height="1555.09"/>
	<rect x="498.22" y="487.28" class="st10" width="1555.09" height="1555.09"/>
	<rect x="494.09" y="482.01" class="st11" width="1555.09" height="1555.09"/>
	<rect x="489.96" y="476.73" class="st12" width="1555.09" height="1555.09"/>
	<rect x="485.84" y="471.46" class="st13" width="1555.09" height="1555.09"/>
	<rect x="481.72" y="466.19" class="st14" width="1555.09" height="1555.09"/>
	<rect x="477.58" y="460.92" class="st15" width="1555.09" height="1555.09"/>
	<rect x="473.45" y="455.64" class="st16" width="1555.09" height="1555.09"/>
	<rect x="469.33" y="450.37" class="st17" width="1555.09" height="1555.09"/>
	<rect x="465.21" y="445.1" class="st18" width="1555.09" height="1555.09"/>
	<rect x="461.08" y="439.83" class="st19" width="1555.09" height="1555.09"/>
	<rect x="456.94" y="434.54" class="st20" width="1555.09" height="1555.09"/>
	<rect x="452.82" y="429.28" class="st21" width="1555.09" height="1555.09"/>
	<rect x="448.7" y="424.01" class="st22" width="1555.09" height="1555.09"/>
	<rect x="444.57" y="418.74" class="st23" width="1555.09" height="1555.09"/>
	<rect x="440.44" y="413.45" class="st24" width="1555.09" height="1555.09"/>
	<rect x="436.32" y="408.18" class="st25" width="1555.09" height="1555.09"/>
	<rect x="432.2" y="402.91" class="st26" width="1555.09" height="1555.09"/>
	<rect x="428.06" y="397.64" class="st27" width="1555.09" height="1555.09"/>
	<rect x="423.93" y="392.36" class="st28" width="1555.09" height="1555.09"/>
	<rect x="419.81" y="387.09" class="st29" width="1555.09" height="1555.09"/>
	<rect x="415.69" y="381.82" class="st30" width="1555.09" height="1555.09"/>
	<rect x="411.56" y="376.55" class="st31" width="1555.09" height="1555.09"/>
	<rect x="407.42" y="371.27" class="st32" width="1555.09" height="1555.09"/>
	<rect x="403.3" y="366" class="st33" width="1555.09" height="1555.09"/>
	<rect x="399.18" y="360.73" class="st34" width="1555.09" height="1555.09"/>
	<rect x="395.05" y="355.46" class="st35" width="1555.09" height="1555.09"/>
	<rect x="390.92" y="350.18" class="st36" width="1555.09" height="1555.09"/>
	<rect x="386.8" y="344.91" class="st37" width="1555.09" height="1555.09"/>
	<rect x="382.66" y="339.64" class="st38" width="1555.09" height="1555.09"/>
	<rect x="378.54" y="334.37" class="st39" width="1555.09" height="1555.09"/>
	<rect x="374.41" y="329.08" class="st40" width="1555.09" height="1555.09"/>
	<rect x="370.29" y="323.81" class="st41" width="1555.09" height="1555.09"/>
	<rect x="366.16" y="318.55" class="st42" width="1555.09" height="1555.09"/>
	<rect x="362.04" y="313.28" class="st43" width="1555.09" height="1555.09"/>
	<rect x="357.9" y="307.99" class="st44" width="1555.09" height="1555.09"/>
	<rect x="353.78" y="302.72" class="st45" width="1555.09" height="1555.09"/>
	<rect x="349.65" y="297.45" class="st46" width="1555.09" height="1555.09"/>
	<rect x="345.53" y="292.18" class="st47" width="1555.09" height="1555.09"/>
	<rect x="341.39" y="286.9" class="st48" width="1555.09" height="1555.09"/>
	<rect x="337.28" y="281.63" class="st49" width="1555.09" height="1555.09"/>
	<rect x="333.14" y="276.36" class="st50" width="1555.09" height="1555.09"/>
	<rect x="329.02" y="271.09" class="st51" width="1555.09" height="1555.09"/>
	<rect x="324.89" y="265.81" class="st52" width="1555.09" height="1555.09"/>
	<rect x="320.77" y="260.54" class="st53" width="1555.09" height="1555.09"/>
	<rect x="316.63" y="255.27" class="st54" width="1555.09" height="1555.09"/>
	<rect x="312.52" y="250" class="st55" width="1555.09" height="1555.09"/>
</g>
<g id="Capa_3" class="st0">
	<path class="st4" d="M2376,1403.23L2269.07,1476c-161.7-237.59-313.15-354.97-450.37-349.04
		c-92.81,4.09-156.41,63.27-229.94,131.82c-84.5,78.8-180.34,168.06-332.54,170.11c-148.01,2.04-236.82-80.2-315.3-152.64
		c-71.69-66.29-133.55-123.65-237.91-127.74c-113.29-4.42-183.57,59.18-264.96,132.8c-77.39,69.85-163.84,148.11-294.06,165.57
		V1315.6c81.49-16.6,140.67-69.97,207.28-130.23c89.36-80.95,190.8-172.58,356.81-166.11c151.99,5.93,241.68,88.83,320.69,162.02
		c72.21,66.83,129.35,119.54,225.72,118.25c102.29-1.41,168.9-63.49,246.09-135.39c80.63-75.14,171.94-160.29,312.49-166.33
		C2000.66,989.62,2184.77,1122.21,2376,1403.23"/>
</g>
<g id="Capa_4" class="st0">
	<rect x="383.84" y="176" class="st3" width="923.33" height="1988.45"/>
	<rect x="1239.46" y="176.02" class="st2" width="812.54" height="837.83"/>
	<rect x="1239.46" y="1013.83" class="st1" width="812.54" height="1150.62"/>
</g>
<g id="Capa_5">
	<polygon class="st56" points="1399.52,144 1399.52,594.28 1035.82,594.28 1035.82,1841.22 776.05,1841.22 776.05,144 	"/>
	<rect x="1035.82" y="594.28" class="st57" width="363.7" height="1246.95"/>
	<polygon class="st58" points="1659.3,594.28 1659.3,2291.51 1035.83,2291.51 1035.83,1841.23 1399.52,1841.23 1399.52,594.28 	"/>
</g>
<g id="Capa_6" class="st0">
	<path class="st1" d="M1065.97,1270.33c0,250.18-202.81,452.99-452.99,452.99c-250.18,0-452.99-202.81-452.99-452.99
		c0-250.18,202.81-452.99,452.99-452.99C863.16,817.35,1065.97,1020.16,1065.97,1270.33"/>
	<path class="st2" d="M2340,1270.33c0,250.18-202.81,452.99-452.99,452.99c-250.18,0-452.99-202.81-452.99-452.99
		c0-250.18,202.81-452.99,452.99-452.99C2137.19,817.35,2340,1020.16,2340,1270.33"/>
	<path class="st59" d="M1235.84,1730.4c-253.69,0-460.07-206.38-460.07-460.07c0-253.67,206.39-460.05,460.07-460.05
		c253.68,0,460.07,206.38,460.07,460.05C1695.91,1524.01,1489.53,1730.4,1235.84,1730.4 M1235.84,824.43
		c-245.88,0-445.9,200.04-445.9,445.9c0,245.88,200.02,445.92,445.9,445.92c245.88,0,445.9-200.04,445.9-445.92
		C1681.74,1024.47,1481.72,824.43,1235.84,824.43"/>
</g>
<g id="Capa_7" class="st0">
	<path class="st55" d="M2220,1217.79c0,553.4-448.6,1002-1002,1002s-1002-448.6-1002-1002c0-553.4,448.6-1002,1002-1002
		S2220,664.4,2220,1217.79"/>
	<path class="st60" d="M1380.14,673h-328.76L652.4,1493.04c-45.25,22.34-85.59,45.45-120.57,67.55l102.31,195.72
		c123.53-78.07,324.78-171.14,582.99-169.68c258.74,1.21,459.85,96.35,582.99,175.96L1904.17,1568
		c-35.51-22.97-76.58-47.03-122.78-70.3L1380.14,673z M1212.16,1360.87c-70.98,0-138.23,6.08-201.54,16.5l205.13-444.44
		l206.75,445.9c-64.18-11.01-132.41-17.61-204.51-17.94C1216.03,1360.87,1214.12,1360.87,1212.16,1360.87"/>
</g>
</svg>
