<?xml version="1.0" encoding="utf-8"?>
<!-- Generator: Adobe Illustrator 27.0.0, SVG Export Plug-In . SVG Version: 6.00 Build 0)  -->
<svg version="1.1" id="Capa_1" xmlns="http://www.w3.org/2000/svg" xmlns:xlink="http://www.w3.org/1999/xlink" x="0px" y="0px"
	 viewBox="0 0 500 500" style="enable-background:new 0 0 500 500;" xml:space="preserve">
<style type="text/css">
	.st0{fill:#EAF205;}
	.st1{fill:#F205B3;}
	.st2{fill:#FF0295;}
	.st3{fill:#6971E4;}
	.st4{fill:#C18BD9;}
</style>
<g>
	<circle class="st0" cx="1073.27" cy="629.52" r="43.81"/>
	<path class="st1" d="M1080.36,605.71h-14.37l-17.44,35.85c-1.98,0.98-3.74,1.99-5.27,2.95l4.47,8.56c5.4-3.41,14.2-7.48,25.49-7.42
		c11.31,0.05,20.1,4.21,25.49,7.69l4.55-8.51c-1.55-1-3.35-2.06-5.37-3.07L1080.36,605.71z M1073.01,635.78
		c-3.1,0-6.04,0.27-8.81,0.72l8.97-19.43l9.04,19.49c-2.81-0.48-5.79-0.77-8.94-0.78C1073.18,635.78,1073.1,635.78,1073.01,635.78z"
		/>
</g>
<g>
	<g>
		<path class="st2" d="M220.88,250.02c0,18.37-6.91,35.14-18.28,47.8c-1.04,1.2-2.15,2.34-3.28,3.41c-0.5,0.54-1.04,1.04-1.61,1.55
			c-1.14,1.07-2.34,2.12-3.6,3.09c-12.25,9.91-27.88,15.82-44.89,15.82c-4.7,0-9.28-0.44-13.73-1.33
			c-33.02-6.38-57.93-35.45-57.93-70.34s24.91-63.96,57.93-70.34c4.45-0.88,9.03-1.33,13.73-1.33c16.98,0,32.61,5.9,44.86,15.78
			c1.26,0.98,2.46,2.02,3.6,3.13c0.57,0.47,1.11,1.01,1.64,1.55c1.14,1.07,2.24,2.21,3.25,3.41
			C213.96,214.88,220.88,231.64,220.88,250.02z"/>
		<path class="st3" d="M422.44,250.02c0,29.74-18.09,55.21-43.88,66.07c-8.56,3.6-17.93,5.59-27.78,5.59
			c-18.15,0-34.69-6.76-47.32-17.87c-1.2-1.01-2.34-2.12-3.44-3.22c-0.54-0.54-1.07-1.07-1.55-1.64c-1.1-1.14-2.15-2.3-3.16-3.54
			c-10.1-12.34-16.19-28.16-16.19-45.4s6.09-33.05,16.23-45.4c0.98-1.23,2.02-2.4,3.13-3.54c0.47-0.57,1.01-1.1,1.55-1.64
			c1.1-1.14,2.27-2.21,3.47-3.25c12.6-11.11,29.17-17.84,47.29-17.84c9.85,0,19.23,1.99,27.78,5.59
			C404.36,194.8,422.44,220.28,422.44,250.02z"/>
		<g>
			<g>
				<g>
					<path class="st4" d="M300.02,199.44c-13.2-13.7-31.76-22.22-52.28-22.22c-19.42,0-37.03,7.64-50.07,20.05
						c-13.98,13.26-22.7,32.01-22.7,52.75c0,20.74,8.74,39.49,22.73,52.75c13.04,12.41,30.65,20.01,50.04,20.01
						c20.49,0,39.05-8.52,52.28-22.19c12.72-13.07,20.52-30.94,20.52-50.57C320.54,230.41,312.74,212.54,300.02,199.44z
						 M298.47,298.95c-12.79,13.29-30.81,21.59-50.73,21.59c-18.72,0-35.77-7.36-48.43-19.32c-13.61-12.85-22.1-31.03-22.1-51.2
						s8.49-38.39,22.1-51.2c12.66-12,29.71-19.35,48.43-19.35c19.92,0,37.95,8.3,50.73,21.62c12.28,12.69,19.82,29.96,19.82,48.93
						S310.75,286.26,298.47,298.95z"/>
				</g>
			</g>
			<g>
				<g>
					<path class="st4" d="M303.49,196.19c-14.11-14.62-33.9-23.71-55.75-23.71c-20.84,0-39.75,8.24-53.67,21.66
						c-14.68,14.11-23.83,33.97-23.83,55.88c0,21.94,9.15,41.77,23.87,55.85c13.92,13.42,32.83,21.66,53.64,21.66
						c21.85,0,41.64-9.09,55.72-23.71c13.48-13.92,21.81-32.89,21.81-53.79C325.28,229.12,316.94,210.14,303.49,196.19z
						 M247.74,315.81c-17.46,0-33.37-6.85-45.14-17.99c-12.69-12-20.65-28.98-20.65-47.8s7.92-35.8,20.61-47.8
						c11.78-11.18,27.72-18.03,45.18-18.03c18.72,0,35.64,7.86,47.61,20.42c11.27,11.84,18.21,27.81,18.21,45.4
						s-6.95,33.56-18.25,45.4C283.35,307.98,266.46,315.81,247.74,315.81z"/>
				</g>
			</g>
		</g>
	</g>
	<path class="st4" d="M279.12,250.02c0,17.24,6.09,33.05,16.19,45.4c-11.96,12.56-28.85,20.39-47.57,20.39
		c-17.46,0-33.37-6.85-45.14-17.99c11.36-12.66,18.28-29.42,18.28-47.8s-6.91-35.14-18.31-47.8c11.78-11.18,27.72-18.03,45.18-18.03
		c18.72,0,35.64,7.86,47.61,20.42C285.21,216.96,279.12,232.78,279.12,250.02z"/>
</g>
</svg>
