<?xml version="1.0" encoding="utf-8"?>
<!-- Generator: Adobe Illustrator 27.0.0, SVG Export Plug-In . SVG Version: 6.00 Build 0)  -->
<svg version="1.1" id="Capa_1" xmlns="http://www.w3.org/2000/svg" xmlns:xlink="http://www.w3.org/1999/xlink" x="0px" y="0px"
	 viewBox="0 0 500 500" style="enable-background:new 0 0 500 500;" xml:space="preserve">
<style type="text/css">
	.st0{fill:#6971E4;}
	.st1{fill:#EAF205;}
	.st2{fill:#FF0295;}
	.st3{fill:#F205B3;}
	.st4{fill:#C18BD9;}
</style>
<g>
	<g>
		<g>
			<path class="st0" d="M425.43,276.17l-16.81,11.44c-25.42-37.35-49.22-55.8-70.79-54.87c-14.59,0.64-24.59,9.95-36.14,20.72
				c-13.28,12.39-28.35,26.42-52.27,26.74c-23.26,0.32-37.23-12.61-49.56-23.99c-11.27-10.42-20.99-19.44-37.4-20.08
				c-17.81-0.69-28.86,9.3-41.65,20.88c-12.17,10.98-25.76,23.28-46.22,26.03V262.4c12.81-2.61,22.11-11,32.58-20.47
				c14.05-12.73,29.99-27.13,56.09-26.11c23.89,0.93,37.99,13.96,50.41,25.47c11.35,10.51,20.33,18.79,35.48,18.59
				c16.08-0.22,26.55-9.98,38.68-21.28c12.67-11.81,27.03-25.2,49.12-26.15C366.42,211.16,395.37,232,425.43,276.17z"/>
		</g>
	</g>
</g>
<g>
	<rect x="525.87" y="572.24" class="st1" width="53.2" height="114.58"/>
	
		<rect x="574.44" y="572.96" transform="matrix(6.123234e-17 -1 1 6.123234e-17 2.2071 1194.9554)" class="st2" width="48.28" height="46.82"/>
	
		<rect x="565.43" y="630.25" transform="matrix(6.123234e-17 -1 1 6.123234e-17 -55.0819 1252.2445)" class="st0" width="66.3" height="46.82"/>
</g>
<g>
	<circle class="st1" cx="1073.27" cy="629.52" r="43.81"/>
	<path class="st3" d="M1080.36,605.71h-14.37l-17.44,35.85c-1.98,0.98-3.74,1.99-5.27,2.95l4.47,8.56c5.4-3.41,14.2-7.48,25.49-7.42
		c11.31,0.05,20.1,4.21,25.49,7.69l4.55-8.51c-1.55-1-3.35-2.06-5.37-3.07L1080.36,605.71z M1073.01,635.78
		c-3.1,0-6.04,0.27-8.81,0.72l8.97-19.43l9.04,19.49c-2.81-0.48-5.79-0.77-8.94-0.78C1073.18,635.78,1073.1,635.78,1073.01,635.78z"
		/>
</g>
<g>
	<polygon class="st2" points="775.85,577.29 775.85,599.2 758.16,599.2 758.16,659.85 745.53,659.85 745.53,577.29 	"/>
	<rect x="758.16" y="599.2" class="st4" width="17.69" height="60.66"/>
	<polygon class="st0" points="788.49,599.2 788.49,681.76 758.16,681.76 758.16,659.85 775.85,659.85 775.85,599.2 	"/>
</g>
<g>
	<g>
		<path class="st2" d="M916.48,629.53c0,5.82-2.19,11.13-5.79,15.14c-0.33,0.38-0.68,0.74-1.04,1.08c-0.16,0.17-0.33,0.33-0.51,0.49
			c-0.36,0.34-0.74,0.67-1.14,0.98c-3.88,3.14-8.83,5.01-14.22,5.01c-1.49,0-2.94-0.14-4.35-0.42
			c-10.46-2.02-18.35-11.23-18.35-22.28s7.89-20.26,18.35-22.28c1.41-0.28,2.86-0.42,4.35-0.42c5.38,0,10.33,1.87,14.21,5
			c0.4,0.31,0.78,0.64,1.14,0.99c0.18,0.15,0.35,0.32,0.52,0.49c0.36,0.34,0.71,0.7,1.03,1.08
			C914.29,618.4,916.48,623.71,916.48,629.53z"/>
		<path class="st0" d="M980.33,629.53c0,9.42-5.73,17.49-13.9,20.93c-2.71,1.14-5.68,1.77-8.8,1.77c-5.75,0-10.99-2.14-14.99-5.66
			c-0.38-0.32-0.74-0.67-1.09-1.02c-0.17-0.17-0.34-0.34-0.49-0.52c-0.35-0.36-0.68-0.73-1-1.12c-3.2-3.91-5.13-8.92-5.13-14.38
			s1.93-10.47,5.14-14.38c0.31-0.39,0.64-0.76,0.99-1.12c0.15-0.18,0.32-0.35,0.49-0.52c0.35-0.36,0.72-0.7,1.1-1.03
			c3.99-3.52,9.24-5.65,14.98-5.65c3.12,0,6.09,0.63,8.8,1.77C974.6,612.04,980.33,620.11,980.33,629.53z"/>
		<g>
			<g>
				<g>
					<path class="st4" d="M941.55,613.51c-4.18-4.34-10.06-7.04-16.56-7.04c-6.15,0-11.73,2.42-15.86,6.35
						c-4.43,4.2-7.19,10.14-7.19,16.71s2.77,12.51,7.2,16.71c4.13,3.93,9.71,6.34,15.85,6.34c6.49,0,12.37-2.7,16.56-7.03
						c4.03-4.14,6.5-9.8,6.5-16.02C948.05,623.32,945.58,617.66,941.55,613.51z M941.06,645.03c-4.05,4.21-9.76,6.84-16.07,6.84
						c-5.93,0-11.33-2.33-15.34-6.12c-4.31-4.07-7-9.83-7-16.22s2.69-12.16,7-16.22c4.01-3.8,9.41-6.13,15.34-6.13
						c6.31,0,12.02,2.63,16.07,6.85c3.89,4.02,6.28,9.49,6.28,15.5S944.95,641.01,941.06,645.03z"/>
				</g>
			</g>
			<g>
				<g>
					<path class="st4" d="M942.65,612.48c-4.47-4.63-10.74-7.51-17.66-7.51c-6.6,0-12.59,2.61-17,6.86
						c-4.65,4.47-7.55,10.76-7.55,17.7c0,6.95,2.9,13.23,7.56,17.69c4.41,4.25,10.4,6.86,16.99,6.86c6.92,0,13.19-2.88,17.65-7.51
						c4.27-4.41,6.91-10.42,6.91-17.04S946.91,616.9,942.65,612.48z M924.99,650.37c-5.53,0-10.57-2.17-14.3-5.7
						c-4.02-3.8-6.54-9.18-6.54-15.14s2.51-11.34,6.53-15.14c3.73-3.54,8.78-5.71,14.31-5.71c5.93,0,11.29,2.49,15.08,6.47
						c3.57,3.75,5.77,8.81,5.77,14.38s-2.2,10.63-5.78,14.38C936.27,647.89,930.92,650.37,924.99,650.37z"/>
				</g>
			</g>
		</g>
	</g>
	<path class="st4" d="M934.93,629.53c0,5.46,1.93,10.47,5.13,14.38c-3.79,3.98-9.14,6.46-15.07,6.46c-5.53,0-10.57-2.17-14.3-5.7
		c3.6-4.01,5.79-9.32,5.79-15.14s-2.19-11.13-5.8-15.14c3.73-3.54,8.78-5.71,14.31-5.71c5.93,0,11.29,2.49,15.08,6.47
		C936.86,619.06,934.93,624.07,934.93,629.53z"/>
</g>
</svg>
