<?xml version="1.0" encoding="utf-8"?>
<!-- Generator: Adobe Illustrator 27.0.0, SVG Export Plug-In . SVG Version: 6.00 Build 0)  -->
<svg version="1.1" id="Capa_1" xmlns="http://www.w3.org/2000/svg" xmlns:xlink="http://www.w3.org/1999/xlink" x="0px" y="0px"
	 viewBox="0 0 500 500" style="enable-background:new 0 0 500 500;" xml:space="preserve">
<style type="text/css">
	.st0{fill:#6971E4;}
	.st1{fill:#EAF205;}
	.st2{fill:#FF0295;}
	.st3{fill:#F205B3;}
	.st4{fill:#C18BD9;}
	.st5{fill:#6C74E0;}
	.st6{fill:#6E76DB;}
	.st7{fill:#7179D7;}
	.st8{fill:#737BD3;}
	.st9{fill:#767ECE;}
	.st10{fill:#7880CA;}
	.st11{fill:#7B83C5;}
	.st12{fill:#7D85C1;}
	.st13{fill:#8088BD;}
	.st14{fill:#828AB8;}
	.st15{fill:#858DB4;}
	.st16{fill:#878FB0;}
	.st17{fill:#8A92AB;}
	.st18{fill:#8C94A7;}
	.st19{fill:#8F97A2;}
	.st20{fill:#91999E;}
	.st21{fill:#949C9A;}
	.st22{fill:#979F95;}
	.st23{fill:#99A191;}
	.st24{fill:#9CA48D;}
	.st25{fill:#9EA688;}
	.st26{fill:#A1A984;}
	.st27{fill:#A3AB7F;}
	.st28{fill:#A6AE7B;}
	.st29{fill:#A8B077;}
	.st30{fill:#ABB372;}
	.st31{fill:#ADB56E;}
	.st32{fill:#B0B86A;}
	.st33{fill:#B2BA65;}
	.st34{fill:#B5BD61;}
	.st35{fill:#B7BF5C;}
	.st36{fill:#BAC258;}
	.st37{fill:#BCC454;}
	.st38{fill:#BFC74F;}
	.st39{fill:#C2CA4B;}
	.st40{fill:#C4CC47;}
	.st41{fill:#C7CF42;}
	.st42{fill:#C9D13E;}
	.st43{fill:#CCD439;}
	.st44{fill:#CED635;}
	.st45{fill:#D1D931;}
	.st46{fill:#D3DB2C;}
	.st47{fill:#D6DE28;}
	.st48{fill:#D8E024;}
	.st49{fill:#DBE31F;}
	.st50{fill:#DDE51B;}
	.st51{fill:#E0E816;}
	.st52{fill:#E2EA12;}
	.st53{fill:#E5ED0E;}
	.st54{fill:#E7EF09;}
</style>
<g>
	<g>
		<g>
			<path class="st0" d="M453.32,640.48l-7.04,4.79c-10.64-15.63-20.61-23.36-29.64-22.97c-6.11,0.27-10.29,4.16-15.13,8.68
				c-5.56,5.19-11.87,11.06-21.88,11.19c-9.74,0.13-15.59-5.28-20.75-10.04c-4.72-4.36-8.79-8.14-15.66-8.41
				c-7.46-0.29-12.08,3.89-17.44,8.74c-5.09,4.6-10.78,9.75-19.35,10.9v-8.64c5.36-1.09,9.26-4.6,13.64-8.57
				c5.88-5.33,12.56-11.36,23.48-10.93c10,0.39,15.9,5.85,21.1,10.66c4.75,4.4,8.51,7.87,14.85,7.78c6.73-0.09,11.12-4.18,16.2-8.91
				c5.31-4.94,11.31-10.55,20.57-10.95C428.62,613.26,440.73,621.99,453.32,640.48z"/>
		</g>
	</g>
</g>
<g>
	<rect x="525.87" y="572.24" class="st1" width="53.2" height="114.58"/>
	
		<rect x="574.44" y="572.96" transform="matrix(6.123234e-17 -1 1 6.123234e-17 2.2071 1194.9554)" class="st2" width="48.28" height="46.82"/>
	
		<rect x="565.43" y="630.25" transform="matrix(6.123234e-17 -1 1 6.123234e-17 -55.0819 1252.2445)" class="st0" width="66.3" height="46.82"/>
</g>
<g>
	<circle class="st1" cx="1073.27" cy="629.52" r="43.81"/>
	<path class="st3" d="M1080.36,605.71h-14.37l-17.44,35.85c-1.98,0.98-3.74,1.99-5.27,2.95l4.47,8.56c5.4-3.41,14.2-7.48,25.49-7.42
		c11.31,0.05,20.1,4.21,25.49,7.69l4.55-8.51c-1.55-1-3.35-2.06-5.37-3.07L1080.36,605.71z M1073.01,635.78
		c-3.1,0-6.04,0.27-8.81,0.72l8.97-19.43l9.04,19.49c-2.81-0.48-5.79-0.77-8.94-0.78C1073.18,635.78,1073.1,635.78,1073.01,635.78z"
		/>
</g>
<g>
	<polygon class="st2" points="775.85,577.29 775.85,599.2 758.16,599.2 758.16,659.85 745.53,659.85 745.53,577.29 	"/>
	<rect x="758.16" y="599.2" class="st4" width="17.69" height="60.66"/>
	<polygon class="st0" points="788.49,599.2 788.49,681.76 758.16,681.76 758.16,659.85 775.85,659.85 775.85,599.2 	"/>
</g>
<g>
	<rect x="135.81" y="140.77" class="st0" width="264.13" height="264.13"/>
	<rect x="135.11" y="139.88" class="st5" width="264.13" height="264.13"/>
	<rect x="134.41" y="138.98" class="st6" width="264.13" height="264.13"/>
	<rect x="133.71" y="138.09" class="st7" width="264.13" height="264.13"/>
	<rect x="133" y="137.19" class="st8" width="264.13" height="264.13"/>
	<rect x="132.3" y="136.29" class="st9" width="264.13" height="264.13"/>
	<rect x="131.6" y="135.4" class="st10" width="264.13" height="264.13"/>
	<rect x="130.9" y="134.5" class="st11" width="264.13" height="264.13"/>
	<rect x="130.2" y="133.61" class="st12" width="264.13" height="264.13"/>
	<rect x="129.5" y="132.71" class="st13" width="264.13" height="264.13"/>
	<rect x="128.8" y="131.82" class="st14" width="264.13" height="264.13"/>
	<rect x="128.1" y="130.92" class="st15" width="264.13" height="264.13"/>
	<rect x="127.4" y="130.03" class="st16" width="264.13" height="264.13"/>
	<rect x="126.7" y="129.13" class="st17" width="264.13" height="264.13"/>
	<rect x="126" y="128.23" class="st18" width="264.13" height="264.13"/>
	<rect x="125.29" y="127.34" class="st19" width="264.13" height="264.13"/>
	<rect x="124.59" y="126.44" class="st20" width="264.13" height="264.13"/>
	<rect x="123.89" y="125.55" class="st21" width="264.13" height="264.13"/>
	<rect x="123.19" y="124.65" class="st22" width="264.13" height="264.13"/>
	<rect x="122.49" y="123.76" class="st23" width="264.13" height="264.13"/>
	<rect x="121.79" y="122.86" class="st24" width="264.13" height="264.13"/>
	<rect x="121.09" y="121.96" class="st25" width="264.13" height="264.13"/>
	<rect x="120.39" y="121.07" class="st26" width="264.13" height="264.13"/>
	<rect x="119.69" y="120.17" class="st27" width="264.13" height="264.13"/>
	<rect x="118.99" y="119.28" class="st28" width="264.13" height="264.13"/>
	<rect x="118.29" y="118.38" class="st29" width="264.13" height="264.13"/>
	<rect x="117.58" y="117.49" class="st30" width="264.13" height="264.13"/>
	<rect x="116.88" y="116.59" class="st31" width="264.13" height="264.13"/>
	<rect x="116.18" y="115.7" class="st32" width="264.13" height="264.13"/>
	<rect x="115.48" y="114.8" class="st33" width="264.13" height="264.13"/>
	<rect x="114.78" y="113.9" class="st34" width="264.13" height="264.13"/>
	<rect x="114.08" y="113.01" class="st35" width="264.13" height="264.13"/>
	<rect x="113.38" y="112.11" class="st36" width="264.13" height="264.13"/>
	<rect x="112.68" y="111.22" class="st37" width="264.13" height="264.13"/>
	<rect x="111.98" y="110.32" class="st38" width="264.13" height="264.13"/>
	<rect x="111.28" y="109.43" class="st39" width="264.13" height="264.13"/>
	<rect x="110.57" y="108.53" class="st40" width="264.13" height="264.13"/>
	<rect x="109.87" y="107.63" class="st41" width="264.13" height="264.13"/>
	<rect x="109.17" y="106.74" class="st42" width="264.13" height="264.13"/>
	<rect x="108.47" y="105.84" class="st43" width="264.13" height="264.13"/>
	<rect x="107.77" y="104.95" class="st44" width="264.13" height="264.13"/>
	<rect x="107.07" y="104.05" class="st45" width="264.13" height="264.13"/>
	<rect x="106.37" y="103.16" class="st46" width="264.13" height="264.13"/>
	<rect x="105.67" y="102.26" class="st47" width="264.13" height="264.13"/>
	<rect x="104.97" y="101.37" class="st48" width="264.13" height="264.13"/>
	<rect x="104.27" y="100.47" class="st49" width="264.13" height="264.13"/>
	<rect x="103.57" y="99.57" class="st50" width="264.13" height="264.13"/>
	<rect x="102.86" y="98.68" class="st51" width="264.13" height="264.13"/>
	<rect x="102.16" y="97.78" class="st52" width="264.13" height="264.13"/>
	<rect x="101.46" y="96.89" class="st53" width="264.13" height="264.13"/>
	<rect x="100.76" y="95.99" class="st54" width="264.13" height="264.13"/>
	<rect x="100.06" y="95.1" class="st1" width="264.13" height="264.13"/>
</g>
<g>
	<g>
		<path class="st2" d="M916.48,629.53c0,5.82-2.19,11.13-5.79,15.14c-0.33,0.38-0.68,0.74-1.04,1.08c-0.16,0.17-0.33,0.33-0.51,0.49
			c-0.36,0.34-0.74,0.67-1.14,0.98c-3.88,3.14-8.83,5.01-14.22,5.01c-1.49,0-2.94-0.14-4.35-0.42
			c-10.46-2.02-18.35-11.23-18.35-22.28s7.89-20.26,18.35-22.28c1.41-0.28,2.86-0.42,4.35-0.42c5.38,0,10.33,1.87,14.21,5
			c0.4,0.31,0.78,0.64,1.14,0.99c0.18,0.15,0.35,0.32,0.52,0.49c0.36,0.34,0.71,0.7,1.03,1.08
			C914.29,618.4,916.48,623.71,916.48,629.53z"/>
		<path class="st0" d="M980.33,629.53c0,9.42-5.73,17.49-13.9,20.93c-2.71,1.14-5.68,1.77-8.8,1.77c-5.75,0-10.99-2.14-14.99-5.66
			c-0.38-0.32-0.74-0.67-1.09-1.02c-0.17-0.17-0.34-0.34-0.49-0.52c-0.35-0.36-0.68-0.73-1-1.12c-3.2-3.91-5.13-8.92-5.13-14.38
			s1.93-10.47,5.14-14.38c0.31-0.39,0.64-0.76,0.99-1.12c0.15-0.18,0.32-0.35,0.49-0.52c0.35-0.36,0.72-0.7,1.1-1.03
			c3.99-3.52,9.24-5.65,14.98-5.65c3.12,0,6.09,0.63,8.8,1.77C974.6,612.04,980.33,620.11,980.33,629.53z"/>
		<g>
			<g>
				<g>
					<path class="st4" d="M941.55,613.51c-4.18-4.34-10.06-7.04-16.56-7.04c-6.15,0-11.73,2.42-15.86,6.35
						c-4.43,4.2-7.19,10.14-7.19,16.71s2.77,12.51,7.2,16.71c4.13,3.93,9.71,6.34,15.85,6.34c6.49,0,12.37-2.7,16.56-7.03
						c4.03-4.14,6.5-9.8,6.5-16.02C948.05,623.32,945.58,617.66,941.55,613.51z M941.06,645.03c-4.05,4.21-9.76,6.84-16.07,6.84
						c-5.93,0-11.33-2.33-15.34-6.12c-4.31-4.07-7-9.83-7-16.22s2.69-12.16,7-16.22c4.01-3.8,9.41-6.13,15.34-6.13
						c6.31,0,12.02,2.63,16.07,6.85c3.89,4.02,6.28,9.49,6.28,15.5S944.95,641.01,941.06,645.03z"/>
				</g>
			</g>
			<g>
				<g>
					<path class="st4" d="M942.65,612.48c-4.47-4.63-10.74-7.51-17.66-7.51c-6.6,0-12.59,2.61-17,6.86
						c-4.65,4.47-7.55,10.76-7.55,17.7c0,6.95,2.9,13.23,7.56,17.69c4.41,4.25,10.4,6.86,16.99,6.86c6.92,0,13.19-2.88,17.65-7.51
						c4.27-4.41,6.91-10.42,6.91-17.04S946.91,616.9,942.65,612.48z M924.99,650.37c-5.53,0-10.57-2.17-14.3-5.7
						c-4.02-3.8-6.54-9.18-6.54-15.14s2.51-11.34,6.53-15.14c3.73-3.54,8.78-5.71,14.31-5.71c5.93,0,11.29,2.49,15.08,6.47
						c3.57,3.75,5.77,8.81,5.77,14.38s-2.2,10.63-5.78,14.38C936.27,647.89,930.92,650.37,924.99,650.37z"/>
				</g>
			</g>
		</g>
	</g>
	<path class="st4" d="M934.93,629.53c0,5.46,1.93,10.47,5.13,14.38c-3.79,3.98-9.14,6.46-15.07,6.46c-5.53,0-10.57-2.17-14.3-5.7
		c3.6-4.01,5.79-9.32,5.79-15.14s-2.19-11.13-5.8-15.14c3.73-3.54,8.78-5.71,14.31-5.71c5.93,0,11.29,2.49,15.08,6.47
		C936.86,619.06,934.93,624.07,934.93,629.53z"/>
</g>
</svg>
