<?xml version="1.0" encoding="utf-8"?>
<!-- Generator: Adobe Illustrator 27.0.0, SVG Export Plug-In . SVG Version: 6.00 Build 0)  -->
<svg version="1.1" id="Capa_1" xmlns="http://www.w3.org/2000/svg" xmlns:xlink="http://www.w3.org/1999/xlink" x="0px" y="0px"
	 viewBox="0 0 500 500" style="enable-background:new 0 0 500 500;" xml:space="preserve">
<style type="text/css">
	.st0{fill:#EAF205;}
	.st1{fill:#F205B3;}
</style>
<g>
	<circle class="st0" cx="250" cy="250" r="147.14"/>
	<path class="st1" d="M273.81,170h-48.28l-58.59,120.42c-6.65,3.28-12.57,6.67-17.71,9.92l15.03,28.74
		c18.14-11.46,47.69-25.13,85.61-24.92c38,0.18,67.53,14.15,85.61,25.84l15.28-28.58c-5.22-3.37-11.25-6.91-18.03-10.32L273.81,170z
		 M249.14,271.01c-10.42,0-20.3,0.89-29.6,2.42l30.12-65.26l30.36,65.48c-9.42-1.62-19.44-2.59-30.03-2.64
		C249.71,271.01,249.43,271.01,249.14,271.01z"/>
</g>
</svg>
